<svg xmlns="http://www.w3.org/2000/svg" xmlns:xlink="http://www.w3.org/1999/xlink" width="50" zoomAndPan="magnify" viewBox="0 0 37.5 37.499999" height="50" preserveAspectRatio="xMidYMid meet" version="1.0"><defs><clipPath id="416161283a"><path d="M 1.128906 1.40625 L 36.378906 1.40625 L 36.378906 36.65625 L 1.128906 36.65625 Z M 1.128906 1.40625 " clip-rule="nonzero"/></clipPath><clipPath id="92d8422ad0"><path d="M 6.328125 5.277344 L 31 5.277344 L 31 32.277344 L 6.328125 32.277344 Z M 6.328125 5.277344 " clip-rule="nonzero"/></clipPath></defs><g clip-path="url(#416161283a)"><path fill="#146356" d="M 4.75 3.210938 L 4.691406 3.304688 C 4.59375 3.359375 4.539062 3.382812 4.75 3.210938 Z M 14.632812 1.558594 L 14.460938 1.597656 C 14.496094 1.601562 14.539062 1.605469 14.578125 1.609375 C 14.621094 1.597656 14.640625 1.582031 14.632812 1.558594 Z M 2.394531 5.761719 C 2.34375 5.816406 2.269531 5.917969 2.191406 6.0625 C 2.277344 5.960938 2.371094 5.84375 2.464844 5.722656 C 2.46875 5.691406 2.441406 5.703125 2.394531 5.761719 Z M 17.398438 1.582031 C 17.585938 1.589844 17.75 1.59375 17.921875 1.601562 C 17.804688 1.582031 17.621094 1.574219 17.398438 1.582031 Z M 2.378906 32.394531 C 2.394531 32.433594 2.414062 32.480469 2.449219 32.550781 Z M 32.820312 34.761719 L 32.761719 34.855469 C 32.976562 34.683594 32.921875 34.703125 32.820312 34.761719 Z M 22.882812 36.503906 L 23.054688 36.464844 C 23.015625 36.460938 22.976562 36.460938 22.933594 36.457031 C 22.894531 36.46875 22.871094 36.484375 22.882812 36.503906 Z M 35.121094 32.300781 C 35.167969 32.246094 35.242188 32.148438 35.324219 32 C 35.238281 32.101562 35.140625 32.21875 35.046875 32.339844 C 35.046875 32.371094 35.070312 32.359375 35.121094 32.300781 Z M 20.113281 36.484375 C 19.925781 36.476562 19.761719 36.472656 19.589844 36.464844 C 19.707031 36.480469 19.890625 36.492188 20.113281 36.484375 Z M 35.132812 5.667969 C 35.117188 5.632812 35.097656 5.582031 35.0625 5.515625 Z M 36.136719 22 C 36.082031 23.628906 36.179688 23.910156 36.152344 25.65625 L 36.195312 24.839844 C 36.335938 25.746094 36.117188 27.519531 36.277344 27.789062 C 36.273438 27.921875 36.269531 28.046875 36.257812 28.1875 C 36.246094 28.324219 36.238281 28.460938 36.21875 28.59375 C 36.183594 28.859375 36.128906 29.125 36.070312 29.390625 C 35.945312 29.925781 35.773438 30.476562 35.546875 31.109375 C 35.664062 30.949219 35.761719 30.78125 35.871094 30.609375 C 35.746094 31.007812 35.59375 31.394531 35.417969 31.773438 L 35.320312 31.746094 C 35.140625 32.101562 35.050781 32.285156 35.046875 32.339844 C 34.789062 32.679688 34.5 33.09375 34.144531 33.503906 C 33.789062 33.914062 33.367188 34.320312 32.894531 34.644531 L 32.820312 34.761719 C 32.746094 34.808594 32.640625 34.867188 32.609375 34.878906 C 32.578125 34.925781 32.503906 34.996094 32.410156 35.074219 C 32.316406 35.148438 32.203125 35.230469 32.097656 35.304688 C 31.875 35.453125 31.667969 35.582031 31.660156 35.625 C 31.75 35.589844 31.859375 35.53125 31.976562 35.46875 C 32.097656 35.410156 32.21875 35.335938 32.328125 35.269531 C 32.4375 35.207031 32.53125 35.140625 32.59375 35.09375 C 32.652344 35.046875 32.683594 35.015625 32.660156 35.015625 C 33.070312 34.769531 32.851562 34.960938 32.449219 35.242188 C 32.042969 35.523438 31.429688 35.835938 31.140625 35.953125 C 31.734375 35.628906 30.945312 35.992188 30.582031 36.097656 C 30.53125 36.128906 30.652344 36.09375 30.714844 36.089844 C 30.175781 36.320312 29.777344 36.367188 29.4375 36.410156 C 29.265625 36.425781 29.105469 36.441406 28.945312 36.46875 C 28.78125 36.488281 28.617188 36.535156 28.425781 36.589844 L 28.21875 36.515625 C 28.066406 36.539062 27.914062 36.546875 27.765625 36.566406 C 27.609375 36.582031 27.476562 36.589844 27.332031 36.601562 C 27.253906 36.417969 26.121094 36.582031 25.980469 36.414062 C 25.003906 36.410156 26.113281 36.519531 25.761719 36.5 C 24.851562 36.535156 23.246094 36.371094 22.933594 36.457031 C 22.597656 36.429688 22.253906 36.421875 21.910156 36.421875 C 21.757812 36.4375 21.609375 36.449219 21.464844 36.449219 C 20.925781 36.445312 20.847656 36.429688 20.925781 36.410156 C 20.820312 36.40625 20.714844 36.40625 20.617188 36.398438 L 20.570312 36.476562 C 20.25 36.460938 19.871094 36.425781 19.546875 36.433594 C 19.601562 36.441406 19.648438 36.453125 19.675781 36.464844 C 19.640625 36.460938 19.578125 36.453125 19.5 36.449219 C 19.519531 36.457031 19.550781 36.460938 19.589844 36.464844 C 19.175781 36.453125 18.789062 36.441406 18.417969 36.433594 C 18.390625 36.4375 18.367188 36.441406 18.34375 36.441406 C 18.355469 36.476562 19.335938 36.480469 18.703125 36.496094 C 17.691406 36.46875 17.011719 36.476562 16.394531 36.496094 C 16.492188 36.503906 16.628906 36.511719 16.824219 36.515625 C 16.472656 36.542969 16.042969 36.539062 15.566406 36.523438 C 15.054688 36.539062 14.5 36.554688 13.75 36.546875 L 13.933594 36.605469 C 13.699219 36.59375 13.519531 36.566406 13.292969 36.585938 L 13.417969 36.625 C 13.273438 36.625 12.675781 36.605469 11.945312 36.589844 C 11.578125 36.582031 11.179688 36.574219 10.785156 36.566406 C 10.386719 36.566406 9.996094 36.566406 9.648438 36.5625 L 9.835938 36.585938 L 10.011719 36.601562 L 10.359375 36.636719 C 10.152344 36.625 9.957031 36.613281 9.742188 36.59375 L 9.417969 36.566406 C 9.308594 36.554688 9.203125 36.535156 9.09375 36.523438 L 9.230469 36.636719 C 9.007812 36.570312 8.515625 36.515625 7.9375 36.382812 C 7.359375 36.253906 6.695312 36.035156 6.148438 35.75 L 6.128906 35.8125 L 5.800781 35.625 C 5.695312 35.558594 5.589844 35.488281 5.484375 35.421875 L 5.683594 35.589844 C 5.355469 35.40625 5.03125 35.15625 4.707031 34.890625 C 4.386719 34.617188 4.074219 34.320312 3.753906 34.035156 C 4.15625 34.410156 4.199219 34.566406 4.128906 34.566406 C 3.988281 34.4375 3.863281 34.296875 3.734375 34.160156 C 3.609375 34.011719 3.484375 33.875 3.371094 33.722656 C 3.132812 33.429688 2.925781 33.113281 2.730469 32.792969 C 2.699219 32.78125 2.539062 32.570312 2.441406 32.433594 C 2.367188 32.324219 2.320312 32.265625 2.375 32.398438 L 2.257812 32.148438 C 2.203125 32.007812 2.144531 31.871094 2.09375 31.734375 C 2.085938 31.761719 2.082031 31.789062 2.078125 31.816406 C 1.875 31.421875 1.710938 31.015625 1.582031 30.601562 C 1.457031 30.1875 1.371094 29.769531 1.3125 29.351562 C 1.261719 28.929688 1.238281 28.511719 1.25 28.097656 C 1.261719 27.710938 1.277344 27.328125 1.289062 26.941406 C 1.339844 25.410156 1.378906 23.878906 1.269531 22.238281 L 1.25 22.296875 L 1.367188 20.367188 C 1.355469 20.015625 1.261719 19.914062 1.230469 19.339844 C 1.328125 19.613281 1.242188 18.230469 1.324219 17.871094 C 1.285156 17.417969 1.261719 17.882812 1.222656 18.007812 C 1.128906 16.152344 1.285156 14.683594 1.21875 12.660156 C 1.351562 14.675781 1.320312 14.683594 1.371094 16.066406 C 1.429688 14.433594 1.332031 14.15625 1.359375 12.410156 L 1.316406 13.226562 C 1.171875 12.320312 1.394531 10.546875 1.234375 10.277344 C 1.238281 10.144531 1.242188 10.019531 1.253906 9.878906 C 1.261719 9.742188 1.269531 9.605469 1.292969 9.472656 C 1.328125 9.203125 1.378906 8.941406 1.441406 8.675781 C 1.566406 8.136719 1.734375 7.589844 1.964844 6.953125 C 1.847656 7.113281 1.75 7.285156 1.640625 7.457031 C 1.765625 7.058594 1.917969 6.667969 2.09375 6.292969 L 2.1875 6.320312 C 2.371094 5.960938 2.457031 5.78125 2.460938 5.722656 C 2.722656 5.386719 3.011719 4.972656 3.367188 4.5625 C 3.722656 4.152344 4.140625 3.746094 4.617188 3.421875 L 4.6875 3.304688 C 4.765625 3.257812 4.871094 3.195312 4.898438 3.1875 C 4.933594 3.136719 5.007812 3.066406 5.097656 2.988281 C 5.191406 2.914062 5.304688 2.835938 5.414062 2.757812 C 5.636719 2.613281 5.84375 2.480469 5.847656 2.4375 C 5.761719 2.476562 5.652344 2.535156 5.535156 2.597656 C 5.414062 2.65625 5.292969 2.726562 5.183594 2.796875 C 5.074219 2.859375 4.980469 2.925781 4.917969 2.972656 C 4.855469 3.019531 4.828125 3.050781 4.847656 3.050781 C 4.441406 3.292969 4.660156 3.105469 5.0625 2.824219 C 5.464844 2.542969 6.078125 2.230469 6.371094 2.113281 C 5.777344 2.4375 6.566406 2.074219 6.925781 1.96875 C 6.980469 1.9375 6.859375 1.972656 6.796875 1.976562 C 7.332031 1.746094 7.734375 1.699219 8.074219 1.65625 C 8.246094 1.636719 8.402344 1.625 8.566406 1.597656 C 8.730469 1.574219 8.894531 1.527344 9.085938 1.476562 L 9.292969 1.550781 C 9.445312 1.523438 9.59375 1.515625 9.746094 1.5 C 9.898438 1.484375 10.035156 1.476562 10.179688 1.464844 C 10.257812 1.644531 11.390625 1.480469 11.527344 1.648438 C 12.507812 1.652344 11.398438 1.546875 11.746094 1.566406 C 12.660156 1.53125 14.265625 1.695312 14.574219 1.609375 C 14.910156 1.632812 15.257812 1.640625 15.597656 1.644531 C 15.753906 1.628906 15.902344 1.617188 16.046875 1.617188 C 16.582031 1.621094 16.660156 1.636719 16.585938 1.65625 C 16.691406 1.65625 16.792969 1.660156 16.890625 1.664062 L 16.9375 1.589844 C 17.261719 1.605469 17.636719 1.636719 17.960938 1.632812 C 17.90625 1.625 17.863281 1.613281 17.835938 1.597656 C 17.871094 1.605469 17.933594 1.609375 18.011719 1.617188 C 17.992188 1.609375 17.960938 1.605469 17.921875 1.597656 C 18.335938 1.613281 18.71875 1.625 19.09375 1.628906 C 19.117188 1.628906 19.144531 1.625 19.164062 1.621094 C 19.15625 1.589844 18.175781 1.585938 18.804688 1.570312 C 19.820312 1.597656 20.496094 1.589844 21.113281 1.570312 C 21.019531 1.5625 20.882812 1.554688 20.683594 1.546875 C 21.039062 1.523438 21.46875 1.527344 21.945312 1.542969 C 22.457031 1.527344 23.007812 1.511719 23.757812 1.519531 L 23.578125 1.460938 C 23.8125 1.472656 23.992188 1.496094 24.214844 1.476562 L 24.09375 1.4375 C 24.238281 1.4375 24.835938 1.457031 25.566406 1.476562 C 25.929688 1.484375 26.332031 1.488281 26.722656 1.496094 C 27.121094 1.5 27.515625 1.5 27.863281 1.5 L 27.675781 1.480469 L 27.5 1.460938 L 27.148438 1.429688 C 27.355469 1.445312 27.554688 1.453125 27.769531 1.472656 L 28.09375 1.5 C 28.199219 1.511719 28.308594 1.53125 28.417969 1.546875 L 28.28125 1.429688 C 28.503906 1.496094 28.996094 1.550781 29.574219 1.683594 C 30.152344 1.8125 30.8125 2.03125 31.363281 2.316406 L 31.382812 2.253906 L 31.707031 2.441406 C 31.816406 2.507812 31.921875 2.578125 32.023438 2.644531 L 31.828125 2.476562 C 32.152344 2.660156 32.480469 2.910156 32.804688 3.175781 C 33.125 3.449219 33.4375 3.746094 33.753906 4.03125 C 33.355469 3.65625 33.3125 3.5 33.382812 3.5 C 33.519531 3.628906 33.644531 3.773438 33.777344 3.90625 C 33.898438 4.054688 34.027344 4.191406 34.140625 4.34375 C 34.378906 4.636719 34.585938 4.953125 34.78125 5.273438 C 34.8125 5.285156 34.972656 5.496094 35.066406 5.632812 C 35.144531 5.742188 35.191406 5.800781 35.136719 5.667969 L 35.25 5.921875 C 35.308594 6.058594 35.367188 6.195312 35.417969 6.332031 C 35.421875 6.304688 35.429688 6.277344 35.433594 6.25 C 35.636719 6.644531 35.800781 7.050781 35.929688 7.464844 C 36.054688 7.878906 36.140625 8.296875 36.199219 8.714844 C 36.246094 9.136719 36.273438 9.554688 36.261719 9.96875 C 36.25 10.355469 36.234375 10.738281 36.222656 11.125 C 36.167969 12.65625 36.128906 14.1875 36.242188 15.828125 L 36.261719 15.769531 L 36.144531 17.699219 C 36.15625 18.050781 36.246094 18.152344 36.28125 18.726562 C 36.183594 18.453125 36.269531 19.835938 36.1875 20.195312 C 36.226562 20.648438 36.25 20.183594 36.289062 20.0625 C 36.382812 21.914062 36.222656 23.382812 36.292969 25.40625 C 36.160156 23.390625 36.191406 23.382812 36.136719 22 Z M 1.421875 22.621094 C 1.535156 22.179688 1.421875 21.960938 1.46875 21.414062 C 1.472656 21.371094 1.476562 21.324219 1.480469 21.277344 C 1.472656 21.328125 1.472656 21.371094 1.46875 21.414062 C 1.425781 21.726562 1.328125 22.078125 1.421875 22.621094 Z M 1.519531 23.09375 C 1.515625 23.070312 1.515625 23.042969 1.515625 23.015625 C 1.5 22.667969 1.449219 23.605469 1.476562 24.011719 C 1.496094 23.988281 1.503906 23.882812 1.511719 23.757812 C 1.511719 23.539062 1.515625 23.316406 1.519531 23.09375 Z M 1.601562 15.707031 L 1.597656 15.703125 C 1.597656 15.71875 1.597656 15.730469 1.597656 15.742188 C 1.597656 15.730469 1.601562 15.71875 1.601562 15.707031 Z M 1.617188 14.386719 C 1.617188 14.363281 1.617188 14.339844 1.617188 14.320312 L 1.589844 14.40625 C 1.601562 14.394531 1.609375 14.386719 1.617188 14.386719 Z M 1.859375 7.550781 C 1.828125 7.546875 1.75 7.75 1.671875 7.984375 C 1.636719 8.105469 1.597656 8.230469 1.566406 8.339844 C 1.535156 8.453125 1.511719 8.554688 1.488281 8.613281 C 1.4375 8.980469 1.582031 8.492188 1.640625 8.375 C 1.628906 8.464844 1.613281 8.539062 1.597656 8.621094 C 1.578125 8.703125 1.558594 8.792969 1.539062 8.917969 C 1.578125 8.886719 1.597656 8.828125 1.613281 8.75 C 1.628906 8.671875 1.640625 8.570312 1.652344 8.453125 C 1.675781 8.210938 1.722656 7.894531 1.859375 7.550781 Z M 2.589844 5.625 C 2.523438 5.722656 2.46875 5.820312 2.421875 5.914062 C 2.335938 6.070312 2.253906 6.226562 2.175781 6.382812 C 2.25 6.359375 2.304688 6.160156 2.421875 5.914062 Z M 2.671875 31.5625 C 2.613281 31.441406 2.558594 31.316406 2.503906 31.191406 C 2.523438 31.25 2.542969 31.300781 2.558594 31.347656 C 2.558594 31.355469 2.5625 31.359375 2.5625 31.367188 C 2.605469 31.449219 2.644531 31.519531 2.671875 31.5625 Z M 3.636719 4.917969 C 3.59375 4.953125 3.542969 5 3.488281 5.058594 C 3.511719 5.039062 3.535156 5.019531 3.5625 4.996094 C 3.582031 4.976562 3.605469 4.953125 3.625 4.929688 C 3.628906 4.925781 3.632812 4.921875 3.636719 4.917969 Z M 6.699219 2.65625 C 6.460938 2.738281 6.238281 2.820312 6.03125 2.882812 C 5.972656 2.957031 5.992188 2.976562 5.972656 3.011719 C 6.207031 2.882812 6.449219 2.761719 6.699219 2.65625 Z M 12.769531 36.539062 C 12.335938 36.53125 12.367188 36.433594 11.886719 36.441406 C 11.910156 36.453125 11.890625 36.46875 11.878906 36.484375 C 12.179688 36.523438 12.238281 36.585938 12.769531 36.539062 Z M 25.636719 1.582031 C 25.332031 1.542969 25.273438 1.476562 24.742188 1.523438 C 25.175781 1.535156 25.144531 1.628906 25.625 1.625 C 25.601562 1.609375 25.621094 1.597656 25.636719 1.582031 Z M 31.539062 35.050781 C 31.304688 35.183594 31.0625 35.300781 30.816406 35.410156 C 31.054688 35.324219 31.277344 35.246094 31.480469 35.183594 C 31.542969 35.105469 31.523438 35.089844 31.539062 35.050781 Z M 34.023438 33.003906 C 34 33.027344 33.976562 33.046875 33.953125 33.070312 C 33.929688 33.089844 33.910156 33.109375 33.886719 33.132812 C 33.882812 33.136719 33.878906 33.140625 33.878906 33.144531 C 33.921875 33.109375 33.96875 33.0625 34.023438 33.003906 Z M 34.839844 6.503906 C 34.898438 6.625 34.953125 6.75 35.007812 6.875 C 34.988281 6.816406 34.96875 6.761719 34.953125 6.71875 C 34.953125 6.710938 34.949219 6.703125 34.949219 6.695312 C 34.90625 6.613281 34.867188 6.546875 34.839844 6.503906 Z M 35.339844 31.679688 C 35.261719 31.707031 35.207031 31.902344 35.089844 32.148438 L 34.921875 32.441406 C 34.988281 32.339844 35.042969 32.246094 35.089844 32.148438 C 35.179688 31.996094 35.257812 31.839844 35.339844 31.679688 Z M 35.996094 14.972656 C 35.996094 14.996094 35.996094 15.023438 36 15.050781 C 36.011719 15.398438 36.0625 14.460938 36.035156 14.054688 C 36.019531 14.074219 36.007812 14.183594 36 14.304688 C 36 14.527344 35.996094 14.75 35.996094 14.972656 Z M 35.910156 22.359375 L 35.914062 22.359375 C 35.914062 22.347656 35.914062 22.332031 35.914062 22.320312 C 35.914062 22.332031 35.910156 22.347656 35.910156 22.359375 Z M 35.894531 23.679688 C 35.894531 23.703125 35.894531 23.722656 35.894531 23.746094 L 35.921875 23.65625 C 35.910156 23.671875 35.902344 23.679688 35.894531 23.679688 Z M 35.871094 29.691406 C 35.882812 29.601562 35.898438 29.527344 35.914062 29.445312 C 35.929688 29.363281 35.949219 29.269531 35.972656 29.148438 C 35.933594 29.179688 35.914062 29.234375 35.898438 29.316406 C 35.882812 29.394531 35.871094 29.492188 35.859375 29.613281 C 35.835938 29.851562 35.789062 30.167969 35.652344 30.511719 C 35.683594 30.515625 35.765625 30.316406 35.839844 30.082031 C 35.875 29.960938 35.914062 29.835938 35.945312 29.722656 C 35.976562 29.609375 36 29.511719 36.023438 29.449219 C 36.074219 29.085938 35.929688 29.570312 35.871094 29.691406 Z M 36.089844 15.441406 C 35.976562 15.886719 36.09375 16.105469 36.046875 16.648438 C 36.039062 16.695312 36.035156 16.742188 36.03125 16.785156 C 36.039062 16.734375 36.042969 16.695312 36.046875 16.648438 C 36.085938 16.339844 36.183594 15.988281 36.089844 15.441406 Z M 36.089844 15.441406 " fill-opacity="1" fill-rule="nonzero"/></g><g clip-path="url(#92d8422ad0)"><path fill="#ffffff" d="M 30.515625 13.722656 C 30.253906 12.53125 29.800781 11.421875 29.152344 10.386719 C 28.507812 9.355469 27.707031 8.460938 26.753906 7.707031 C 25.777344 6.933594 24.703125 6.347656 23.527344 5.945312 C 22.351562 5.542969 21.140625 5.347656 19.898438 5.359375 C 17.839844 5.453125 15.859375 5.898438 13.953125 6.691406 C 10.824219 8.054688 9.050781 10.53125 8.679688 14.054688 C 8.636719 14.445312 8.613281 14.847656 8.589844 15.234375 C 8.554688 15.800781 8.515625 16.382812 8.429688 16.949219 C 8.277344 17.871094 7.902344 18.6875 7.304688 19.398438 C 7.007812 19.753906 6.761719 20.144531 6.570312 20.566406 C 6.476562 20.738281 6.421875 20.925781 6.402344 21.125 C 6.382812 21.320312 6.402344 21.515625 6.460938 21.703125 C 6.519531 21.894531 6.613281 22.066406 6.738281 22.21875 C 6.863281 22.371094 7.015625 22.492188 7.191406 22.582031 C 7.390625 22.6875 7.542969 22.839844 7.652344 23.035156 C 7.761719 23.234375 7.808594 23.445312 7.792969 23.671875 C 7.789062 23.863281 7.835938 24.039062 7.929688 24.203125 C 7.925781 24.230469 7.921875 24.253906 7.921875 24.28125 L 7.921875 24.691406 C 7.921875 24.785156 7.949219 24.875 7.996094 24.957031 C 8.015625 24.984375 8.035156 25.011719 8.058594 25.039062 C 8.074219 25.097656 8.101562 25.152344 8.136719 25.203125 C 8.570312 25.773438 8.824219 26.414062 8.898438 27.128906 C 8.953125 27.792969 8.859375 28.457031 8.984375 29.113281 C 9.082031 29.765625 9.398438 30.28125 9.9375 30.65625 C 10.519531 30.96875 11.140625 31.152344 11.800781 31.199219 C 13.023438 31.375 14.210938 31.25 15.363281 30.816406 C 15.378906 30.855469 15.398438 30.914062 15.425781 30.984375 C 15.523438 31.347656 15.6875 31.679688 15.921875 31.96875 C 16.207031 32.191406 16.523438 32.257812 16.871094 32.167969 L 27.5625 32.167969 C 27.65625 32.167969 27.742188 32.148438 27.824219 32.101562 C 27.875 32.09375 27.921875 32.082031 27.96875 32.066406 C 28.101562 32.015625 28.195312 31.925781 28.25 31.796875 C 28.300781 31.667969 28.296875 31.535156 28.238281 31.410156 C 28.199219 31.265625 28.15625 31.121094 28.113281 30.976562 C 27.976562 30.542969 27.871094 30.105469 27.789062 29.65625 C 27.550781 28.171875 27.773438 26.605469 28.480469 24.722656 C 28.9375 23.515625 29.429688 22.292969 29.90625 21.117188 L 30.027344 20.816406 C 30.957031 18.503906 31.121094 16.140625 30.515625 13.722656 Z M 29.179688 20.238281 L 28.957031 20.808594 C 28.378906 22.289062 27.777344 23.816406 27.257812 25.347656 C 26.578125 27.25 26.527344 29.171875 27.097656 31.109375 L 16.570312 31.109375 C 16.480469 30.886719 16.375 30.636719 16.257812 30.382812 C 17.136719 29.867188 17.789062 29.144531 18.214844 28.210938 C 18.492188 27.59375 17.585938 27.054688 17.304688 27.675781 C 16.34375 29.800781 13.921875 30.496094 11.769531 30.128906 C 11.261719 30.042969 10.558594 29.960938 10.242188 29.503906 C 9.929688 29.050781 9.960938 28.441406 9.964844 27.917969 C 10.027344 26.757812 9.734375 25.691406 9.085938 24.726562 C 9.421875 24.730469 9.757812 24.730469 10.085938 24.730469 C 10.246094 24.730469 10.40625 24.730469 10.566406 24.726562 C 10.898438 24.726562 11.089844 24.5625 11.101562 24.269531 C 11.117188 24.132812 11.078125 24.011719 10.988281 23.90625 C 10.871094 23.796875 10.734375 23.746094 10.574219 23.753906 C 10.054688 23.742188 9.539062 23.742188 9.039062 23.753906 C 8.957031 23.765625 8.878906 23.746094 8.8125 23.699219 C 8.761719 23.632812 8.742188 23.558594 8.75 23.476562 C 8.757812 23.128906 8.671875 22.804688 8.496094 22.503906 C 8.324219 22.207031 8.085938 21.972656 7.78125 21.808594 C 7.339844 21.53125 7.269531 21.269531 7.511719 20.808594 C 7.636719 20.585938 7.777344 20.378906 7.941406 20.183594 C 9.027344 18.820312 9.574219 17.265625 9.582031 15.519531 C 9.601562 14.550781 9.71875 13.589844 9.933594 12.644531 C 10.144531 11.65625 10.554688 10.757812 11.164062 9.957031 C 11.777344 9.152344 12.53125 8.515625 13.425781 8.054688 C 14.65625 7.359375 15.964844 6.878906 17.347656 6.605469 C 18.734375 6.332031 20.128906 6.28125 21.527344 6.457031 C 25.613281 7.007812 28.796875 10.070312 29.636719 14.257812 C 30.085938 16.296875 29.933594 18.292969 29.179688 20.238281 Z M 19.527344 9.707031 C 19.0625 9.707031 18.597656 9.75 18.140625 9.84375 C 17.683594 9.933594 17.238281 10.070312 16.808594 10.25 C 16.378906 10.429688 15.96875 10.648438 15.582031 10.910156 C 15.191406 11.171875 14.832031 11.464844 14.503906 11.796875 C 14.175781 12.128906 13.878906 12.492188 13.621094 12.878906 C 13.359375 13.269531 13.140625 13.683594 12.964844 14.117188 C 12.785156 14.550781 12.648438 14.996094 12.558594 15.457031 C 12.46875 15.914062 12.421875 16.378906 12.421875 16.847656 C 12.421875 17.320312 12.46875 17.785156 12.558594 18.242188 C 12.648438 18.703125 12.785156 19.148438 12.964844 19.582031 C 13.140625 20.015625 13.359375 20.429688 13.621094 20.820312 C 13.878906 21.207031 14.171875 21.570312 14.503906 21.902344 C 14.832031 22.234375 15.191406 22.527344 15.582031 22.789062 C 15.96875 23.050781 16.378906 23.269531 16.808594 23.449219 C 17.238281 23.628906 17.683594 23.765625 18.140625 23.855469 C 18.597656 23.949219 19.0625 23.992188 19.527344 23.992188 C 19.992188 23.992188 20.457031 23.949219 20.914062 23.855469 C 21.371094 23.765625 21.816406 23.628906 22.246094 23.449219 C 22.675781 23.269531 23.085938 23.050781 23.472656 22.789062 C 23.863281 22.527344 24.222656 22.234375 24.550781 21.902344 C 24.882812 21.570312 25.175781 21.207031 25.433594 20.820312 C 25.695312 20.429688 25.914062 20.015625 26.089844 19.582031 C 26.269531 19.148438 26.40625 18.703125 26.496094 18.242188 C 26.585938 17.785156 26.632812 17.320312 26.632812 16.851562 C 26.632812 16.382812 26.585938 15.917969 26.496094 15.457031 C 26.402344 14.996094 26.269531 14.550781 26.089844 14.117188 C 25.910156 13.683594 25.691406 13.273438 25.433594 12.882812 C 25.171875 12.492188 24.878906 12.132812 24.550781 11.800781 C 24.21875 11.46875 23.859375 11.171875 23.472656 10.914062 C 23.085938 10.652344 22.675781 10.433594 22.246094 10.253906 C 21.816406 10.074219 21.371094 9.9375 20.914062 9.84375 C 20.457031 9.753906 19.992188 9.707031 19.527344 9.707031 Z M 19.527344 22.933594 C 19.128906 22.933594 18.738281 22.894531 18.347656 22.816406 C 17.957031 22.738281 17.578125 22.621094 17.210938 22.46875 C 16.84375 22.316406 16.496094 22.128906 16.167969 21.90625 C 15.835938 21.6875 15.53125 21.433594 15.25 21.152344 C 14.96875 20.867188 14.71875 20.5625 14.496094 20.230469 C 14.277344 19.898438 14.089844 19.546875 13.9375 19.175781 C 13.785156 18.808594 13.671875 18.429688 13.59375 18.035156 C 13.515625 17.644531 13.476562 17.25 13.476562 16.847656 C 13.476562 16.449219 13.515625 16.054688 13.59375 15.664062 C 13.671875 15.269531 13.785156 14.890625 13.9375 14.523438 C 14.089844 14.152344 14.277344 13.800781 14.496094 13.46875 C 14.71875 13.136719 14.96875 12.832031 15.25 12.546875 C 15.53125 12.265625 15.835938 12.011719 16.167969 11.792969 C 16.496094 11.570312 16.84375 11.382812 17.210938 11.230469 C 17.578125 11.078125 17.957031 10.960938 18.347656 10.882812 C 18.738281 10.804688 19.128906 10.765625 19.527344 10.765625 C 19.925781 10.765625 20.316406 10.804688 20.707031 10.882812 C 21.097656 10.960938 21.476562 11.078125 21.84375 11.230469 C 22.210938 11.382812 22.558594 11.570312 22.890625 11.792969 C 23.21875 12.011719 23.523438 12.265625 23.804688 12.546875 C 24.085938 12.832031 24.335938 13.136719 24.558594 13.46875 C 24.777344 13.800781 24.964844 14.152344 25.117188 14.523438 C 25.269531 14.890625 25.382812 15.269531 25.460938 15.664062 C 25.539062 16.054688 25.578125 16.449219 25.578125 16.851562 C 25.578125 17.25 25.539062 17.644531 25.460938 18.035156 C 25.382812 18.425781 25.265625 18.808594 25.113281 19.175781 C 24.960938 19.546875 24.777344 19.894531 24.554688 20.226562 C 24.335938 20.558594 24.085938 20.867188 23.804688 21.148438 C 23.523438 21.429688 23.21875 21.683594 22.886719 21.90625 C 22.558594 22.128906 22.207031 22.316406 21.839844 22.46875 C 21.476562 22.621094 21.097656 22.738281 20.707031 22.816406 C 20.316406 22.894531 19.925781 22.933594 19.527344 22.933594 Z M 22.019531 14.992188 C 22.015625 15.816406 21.570312 16.488281 21.078125 17.113281 C 20.714844 17.578125 20.199219 18.097656 20.136719 18.714844 C 20.136719 18.863281 20.082031 18.984375 19.980469 19.085938 C 19.878906 19.191406 19.753906 19.242188 19.609375 19.246094 C 19.464844 19.246094 19.34375 19.195312 19.238281 19.089844 C 19.136719 18.988281 19.085938 18.863281 19.082031 18.714844 C 19.171875 17.84375 19.664062 17.199219 20.195312 16.535156 C 20.613281 16.011719 21.078125 15.414062 20.941406 14.703125 C 20.910156 14.519531 20.84375 14.351562 20.75 14.195312 C 20.652344 14.039062 20.53125 13.90625 20.382812 13.796875 C 20.238281 13.6875 20.074219 13.605469 19.898438 13.558594 C 19.722656 13.511719 19.542969 13.496094 19.359375 13.515625 C 19.171875 13.542969 18.996094 13.601562 18.832031 13.695312 C 18.667969 13.789062 18.527344 13.910156 18.410156 14.058594 C 18.292969 14.207031 18.203125 14.371094 18.152344 14.554688 C 18.097656 14.734375 18.078125 14.921875 18.09375 15.109375 C 18.132812 15.792969 17.078125 15.789062 17.039062 15.109375 C 17.019531 14.769531 17.0625 14.4375 17.175781 14.117188 C 17.289062 13.796875 17.460938 13.507812 17.691406 13.257812 C 17.917969 13.007812 18.1875 12.808594 18.496094 12.667969 C 18.804688 12.527344 19.128906 12.453125 19.46875 12.445312 C 19.808594 12.4375 20.132812 12.496094 20.449219 12.621094 C 20.765625 12.75 21.042969 12.929688 21.285156 13.171875 C 21.523438 13.410156 21.707031 13.6875 21.835938 14.003906 C 21.964844 14.320312 22.027344 14.648438 22.019531 14.988281 Z M 19.679688 21.246094 C 19.535156 21.246094 19.410156 21.195312 19.308594 21.09375 C 19.207031 20.988281 19.152344 20.863281 19.152344 20.71875 C 19.152344 20.570312 19.207031 20.445312 19.308594 20.34375 C 19.410156 20.238281 19.535156 20.1875 19.679688 20.1875 C 19.820312 20.195312 19.9375 20.25 20.035156 20.351562 C 20.128906 20.453125 20.179688 20.574219 20.179688 20.714844 C 20.179688 20.855469 20.128906 20.976562 20.035156 21.082031 C 19.9375 21.183594 19.820312 21.238281 19.679688 21.246094 Z M 19.679688 21.246094 " fill-opacity="1" fill-rule="nonzero"/></g></svg>