<svg xmlns="http://www.w3.org/2000/svg" xmlns:xlink="http://www.w3.org/1999/xlink" width="50" zoomAndPan="magnify"
  viewBox="0 0 37.5 37.499999" height="50" preserveAspectRatio="xMidYMid meet" version="1.0">
  <defs>
    <clipPath id="dc41fe75c0">
      <path d="M 35.25 36.335938 L 37.007812 36.335938 L 37.007812 37.007812 L 35.25 37.007812 Z M 35.25 36.335938 "
        clip-rule="nonzero" />
    </clipPath>
    <clipPath id="c753f84269">
      <path
        d="M 1.128906 1.257812 L 36.378906 1.257812 L 36.378906 36.507812 L 1.128906 36.507812 Z M 1.128906 1.257812 "
        clip-rule="nonzero" />
    </clipPath>
    <clipPath id="804eb07ac4">
      <path d="M 7 7 L 30 7 L 30 33.480469 L 7 33.480469 Z M 7 7 " clip-rule="nonzero" />
    </clipPath>
  </defs>
  <g clip-path="url(#dc41fe75c0)">
    <path fill="#e9fff6"
      d="M 50.25 43.835938 C 50.25 47.980469 46.890625 51.335938 42.75 51.335938 C 38.609375 51.335938 35.25 47.980469 35.25 43.835938 C 35.25 39.695312 38.609375 36.335938 42.75 36.335938 C 46.890625 36.335938 50.25 39.695312 50.25 43.835938 "
      fill-opacity="1" fill-rule="nonzero" />
  </g>
  <g clip-path="url(#c753f84269)">
    <path fill="#146356"
      d="M 4.75 3.058594 L 4.691406 3.152344 C 4.59375 3.210938 4.539062 3.234375 4.75 3.058594 Z M 14.632812 1.410156 L 14.460938 1.449219 C 14.496094 1.453125 14.539062 1.453125 14.578125 1.457031 C 14.621094 1.445312 14.640625 1.429688 14.632812 1.410156 Z M 2.394531 5.609375 C 2.34375 5.667969 2.269531 5.765625 2.191406 5.914062 C 2.277344 5.8125 2.371094 5.695312 2.464844 5.574219 C 2.46875 5.542969 2.441406 5.554688 2.394531 5.609375 Z M 17.398438 1.429688 C 17.585938 1.4375 17.75 1.445312 17.921875 1.449219 C 17.804688 1.433594 17.621094 1.421875 17.398438 1.429688 Z M 2.378906 32.246094 C 2.394531 32.28125 2.414062 32.332031 2.449219 32.402344 Z M 32.820312 34.613281 L 32.761719 34.707031 C 32.976562 34.53125 32.921875 34.554688 32.820312 34.613281 Z M 22.882812 36.355469 L 23.054688 36.316406 C 23.015625 36.3125 22.976562 36.308594 22.933594 36.304688 C 22.894531 36.316406 22.871094 36.332031 22.882812 36.355469 Z M 35.121094 32.152344 C 35.167969 32.097656 35.242188 31.996094 35.324219 31.851562 C 35.238281 31.953125 35.140625 32.070312 35.046875 32.191406 C 35.046875 32.222656 35.070312 32.210938 35.121094 32.152344 Z M 20.113281 36.332031 C 19.925781 36.328125 19.761719 36.320312 19.589844 36.3125 C 19.707031 36.332031 19.890625 36.34375 20.113281 36.332031 Z M 35.132812 5.519531 C 35.117188 5.480469 35.097656 5.433594 35.0625 5.363281 Z M 36.136719 21.851562 C 36.082031 23.480469 36.179688 23.757812 36.152344 25.507812 L 36.195312 24.6875 C 36.335938 25.597656 36.117188 27.371094 36.277344 27.640625 C 36.273438 27.769531 36.269531 27.898438 36.257812 28.039062 C 36.246094 28.171875 36.238281 28.308594 36.21875 28.441406 C 36.183594 28.710938 36.128906 28.972656 36.070312 29.242188 C 35.945312 29.777344 35.773438 30.328125 35.546875 30.960938 C 35.664062 30.800781 35.761719 30.628906 35.871094 30.460938 C 35.746094 30.859375 35.59375 31.246094 35.417969 31.625 L 35.320312 31.597656 C 35.140625 31.953125 35.050781 32.136719 35.046875 32.191406 C 34.789062 32.53125 34.5 32.941406 34.144531 33.351562 C 33.789062 33.761719 33.367188 34.167969 32.894531 34.492188 L 32.820312 34.613281 C 32.746094 34.65625 32.640625 34.71875 32.609375 34.726562 C 32.578125 34.777344 32.503906 34.847656 32.410156 34.925781 C 32.316406 35 32.203125 35.078125 32.097656 35.15625 C 31.875 35.304688 31.667969 35.433594 31.660156 35.476562 C 31.75 35.441406 31.859375 35.382812 31.976562 35.320312 C 32.097656 35.261719 32.21875 35.1875 32.328125 35.121094 C 32.4375 35.054688 32.53125 34.992188 32.59375 34.941406 C 32.652344 34.894531 32.683594 34.867188 32.660156 34.867188 C 33.070312 34.621094 32.851562 34.8125 32.449219 35.09375 C 32.042969 35.371094 31.429688 35.683594 31.140625 35.804688 C 31.734375 35.476562 30.945312 35.84375 30.582031 35.945312 C 30.53125 35.980469 30.652344 35.945312 30.714844 35.9375 C 30.175781 36.167969 29.777344 36.214844 29.4375 36.257812 C 29.265625 36.277344 29.105469 36.289062 28.945312 36.320312 C 28.78125 36.339844 28.617188 36.386719 28.425781 36.441406 L 28.21875 36.367188 C 28.066406 36.390625 27.914062 36.398438 27.765625 36.414062 C 27.609375 36.429688 27.476562 36.4375 27.332031 36.449219 C 27.253906 36.269531 26.121094 36.433594 25.980469 36.265625 C 25.003906 36.261719 26.113281 36.367188 25.761719 36.351562 C 24.851562 36.386719 23.246094 36.222656 22.933594 36.308594 C 22.597656 36.28125 22.253906 36.273438 21.910156 36.269531 C 21.757812 36.285156 21.609375 36.296875 21.464844 36.300781 C 20.925781 36.292969 20.847656 36.277344 20.925781 36.261719 C 20.820312 36.257812 20.714844 36.253906 20.617188 36.25 L 20.570312 36.328125 C 20.25 36.308594 19.871094 36.277344 19.546875 36.28125 C 19.601562 36.292969 19.648438 36.300781 19.675781 36.316406 C 19.640625 36.3125 19.578125 36.304688 19.5 36.300781 C 19.519531 36.304688 19.550781 36.3125 19.589844 36.316406 C 19.175781 36.300781 18.789062 36.292969 18.417969 36.285156 C 18.390625 36.285156 18.367188 36.289062 18.34375 36.292969 C 18.355469 36.324219 19.335938 36.328125 18.703125 36.34375 C 17.691406 36.316406 17.011719 36.328125 16.394531 36.34375 C 16.492188 36.355469 16.628906 36.363281 16.824219 36.367188 C 16.472656 36.390625 16.042969 36.386719 15.566406 36.375 C 15.054688 36.390625 14.5 36.402344 13.75 36.398438 L 13.933594 36.457031 C 13.699219 36.445312 13.519531 36.417969 13.292969 36.4375 L 13.417969 36.476562 C 13.273438 36.476562 12.675781 36.457031 11.945312 36.4375 C 11.578125 36.433594 11.179688 36.425781 10.785156 36.417969 C 10.386719 36.417969 9.996094 36.414062 9.648438 36.414062 L 9.835938 36.433594 L 10.011719 36.453125 L 10.359375 36.488281 C 10.152344 36.472656 9.957031 36.460938 9.742188 36.445312 L 9.417969 36.414062 C 9.308594 36.402344 9.203125 36.386719 9.09375 36.371094 L 9.230469 36.484375 C 9.007812 36.421875 8.515625 36.363281 7.9375 36.234375 C 7.359375 36.105469 6.695312 35.886719 6.148438 35.601562 L 6.128906 35.664062 L 5.800781 35.472656 C 5.695312 35.410156 5.589844 35.339844 5.484375 35.273438 L 5.683594 35.4375 C 5.355469 35.253906 5.03125 35.007812 4.707031 34.738281 C 4.386719 34.46875 4.074219 34.171875 3.753906 33.886719 C 4.15625 34.261719 4.199219 34.414062 4.128906 34.417969 C 3.988281 34.289062 3.863281 34.144531 3.734375 34.007812 C 3.609375 33.863281 3.484375 33.726562 3.371094 33.574219 C 3.132812 33.28125 2.925781 32.960938 2.730469 32.640625 C 2.699219 32.632812 2.539062 32.421875 2.441406 32.28125 C 2.367188 32.175781 2.320312 32.117188 2.375 32.25 L 2.257812 31.996094 C 2.203125 31.859375 2.144531 31.722656 2.09375 31.582031 C 2.085938 31.613281 2.082031 31.640625 2.078125 31.667969 C 1.875 31.273438 1.710938 30.863281 1.582031 30.453125 C 1.457031 30.035156 1.371094 29.617188 1.3125 29.199219 C 1.261719 28.78125 1.238281 28.363281 1.25 27.949219 C 1.261719 27.5625 1.277344 27.175781 1.289062 26.792969 C 1.339844 25.261719 1.378906 23.730469 1.269531 22.089844 L 1.25 22.148438 L 1.367188 20.21875 C 1.355469 19.867188 1.261719 19.765625 1.230469 19.191406 C 1.328125 19.464844 1.242188 18.082031 1.324219 17.71875 C 1.285156 17.269531 1.261719 17.730469 1.222656 17.855469 C 1.128906 16.003906 1.285156 14.53125 1.21875 12.507812 C 1.351562 14.523438 1.320312 14.53125 1.371094 15.914062 C 1.429688 14.285156 1.332031 14.007812 1.359375 12.257812 L 1.316406 13.078125 C 1.171875 12.167969 1.394531 10.394531 1.234375 10.125 C 1.238281 9.996094 1.242188 9.867188 1.253906 9.726562 C 1.261719 9.59375 1.269531 9.457031 1.292969 9.324219 C 1.328125 9.054688 1.378906 8.792969 1.441406 8.523438 C 1.566406 7.988281 1.734375 7.4375 1.964844 6.804688 C 1.847656 6.964844 1.75 7.136719 1.640625 7.304688 C 1.765625 6.90625 1.917969 6.519531 2.09375 6.140625 L 2.1875 6.167969 C 2.371094 5.8125 2.457031 5.628906 2.460938 5.574219 C 2.722656 5.234375 3.011719 4.824219 3.367188 4.414062 C 3.722656 4.003906 4.140625 3.59375 4.617188 3.273438 L 4.6875 3.152344 C 4.765625 3.105469 4.871094 3.046875 4.898438 3.039062 C 4.933594 2.988281 5.007812 2.917969 5.097656 2.839844 C 5.191406 2.765625 5.304688 2.6875 5.414062 2.609375 C 5.636719 2.460938 5.84375 2.332031 5.847656 2.289062 C 5.761719 2.324219 5.652344 2.382812 5.535156 2.445312 C 5.414062 2.503906 5.292969 2.578125 5.183594 2.644531 C 5.074219 2.710938 4.980469 2.773438 4.917969 2.824219 C 4.855469 2.871094 4.828125 2.898438 4.847656 2.898438 C 4.441406 3.144531 4.660156 2.953125 5.0625 2.671875 C 5.464844 2.394531 6.078125 2.078125 6.371094 1.960938 C 5.777344 2.289062 6.566406 1.921875 6.925781 1.816406 C 6.980469 1.785156 6.859375 1.820312 6.796875 1.828125 C 7.332031 1.597656 7.734375 1.546875 8.074219 1.507812 C 8.246094 1.488281 8.402344 1.476562 8.566406 1.445312 C 8.730469 1.425781 8.894531 1.378906 9.085938 1.324219 L 9.292969 1.398438 C 9.445312 1.375 9.59375 1.367188 9.746094 1.347656 C 9.898438 1.335938 10.035156 1.328125 10.179688 1.316406 C 10.257812 1.496094 11.390625 1.332031 11.527344 1.5 C 12.507812 1.503906 11.398438 1.398438 11.746094 1.414062 C 12.660156 1.378906 14.265625 1.542969 14.574219 1.457031 C 14.910156 1.484375 15.257812 1.492188 15.597656 1.496094 C 15.753906 1.480469 15.902344 1.46875 16.046875 1.464844 C 16.582031 1.472656 16.660156 1.488281 16.585938 1.503906 C 16.691406 1.507812 16.792969 1.511719 16.890625 1.515625 L 16.9375 1.4375 C 17.261719 1.457031 17.636719 1.488281 17.960938 1.484375 C 17.90625 1.472656 17.863281 1.464844 17.835938 1.449219 C 17.871094 1.453125 17.933594 1.460938 18.011719 1.464844 C 17.992188 1.460938 17.960938 1.453125 17.921875 1.449219 C 18.335938 1.464844 18.71875 1.472656 19.09375 1.480469 C 19.117188 1.476562 19.144531 1.476562 19.164062 1.472656 C 19.15625 1.441406 18.175781 1.4375 18.804688 1.421875 C 19.820312 1.449219 20.496094 1.4375 21.113281 1.417969 C 21.019531 1.410156 20.882812 1.402344 20.683594 1.398438 C 21.039062 1.375 21.46875 1.378906 21.945312 1.390625 C 22.457031 1.375 23.007812 1.363281 23.757812 1.367188 L 23.578125 1.308594 C 23.8125 1.320312 23.992188 1.347656 24.214844 1.328125 L 24.09375 1.289062 C 24.238281 1.289062 24.835938 1.308594 25.566406 1.328125 C 25.929688 1.332031 26.332031 1.339844 26.722656 1.347656 C 27.121094 1.347656 27.515625 1.351562 27.863281 1.351562 L 27.675781 1.328125 L 27.5 1.3125 L 27.148438 1.277344 C 27.355469 1.292969 27.554688 1.304688 27.769531 1.320312 L 28.09375 1.351562 C 28.199219 1.363281 28.308594 1.378906 28.417969 1.394531 L 28.28125 1.28125 C 28.503906 1.347656 28.996094 1.402344 29.574219 1.535156 C 30.152344 1.664062 30.8125 1.882812 31.363281 2.167969 L 31.382812 2.105469 L 31.707031 2.292969 C 31.816406 2.355469 31.921875 2.425781 32.023438 2.496094 L 31.828125 2.328125 C 32.152344 2.511719 32.480469 2.761719 32.804688 3.027344 C 33.125 3.296875 33.4375 3.59375 33.753906 3.878906 C 33.355469 3.507812 33.3125 3.351562 33.382812 3.347656 C 33.519531 3.476562 33.644531 3.621094 33.777344 3.757812 C 33.898438 3.902344 34.027344 4.042969 34.140625 4.191406 C 34.378906 4.488281 34.585938 4.804688 34.78125 5.125 C 34.8125 5.136719 34.972656 5.34375 35.066406 5.484375 C 35.144531 5.59375 35.191406 5.648438 35.136719 5.519531 L 35.25 5.769531 C 35.308594 5.910156 35.367188 6.042969 35.417969 6.183594 C 35.421875 6.15625 35.429688 6.125 35.433594 6.097656 C 35.636719 6.496094 35.800781 6.902344 35.929688 7.316406 C 36.054688 7.730469 36.140625 8.148438 36.199219 8.566406 C 36.246094 8.984375 36.273438 9.402344 36.261719 9.816406 C 36.25 10.203125 36.234375 10.589844 36.222656 10.972656 C 36.167969 12.507812 36.128906 14.039062 36.242188 15.679688 L 36.261719 15.617188 L 36.144531 17.546875 C 36.15625 17.898438 36.246094 18 36.28125 18.574219 C 36.183594 18.300781 36.269531 19.683594 36.1875 20.046875 C 36.226562 20.5 36.25 20.035156 36.289062 19.910156 C 36.382812 21.761719 36.222656 23.234375 36.292969 25.257812 C 36.160156 23.242188 36.191406 23.234375 36.136719 21.851562 Z M 1.421875 22.472656 C 1.535156 22.027344 1.421875 21.8125 1.46875 21.265625 C 1.472656 21.21875 1.476562 21.171875 1.480469 21.128906 C 1.472656 21.179688 1.472656 21.21875 1.46875 21.265625 C 1.425781 21.578125 1.328125 21.925781 1.421875 22.472656 Z M 1.519531 22.945312 C 1.515625 22.917969 1.515625 22.894531 1.515625 22.863281 C 1.5 22.519531 1.449219 23.453125 1.476562 23.859375 C 1.496094 23.839844 1.503906 23.730469 1.511719 23.609375 C 1.511719 23.386719 1.515625 23.167969 1.519531 22.945312 Z M 1.601562 15.554688 L 1.597656 15.554688 C 1.597656 15.570312 1.597656 15.582031 1.597656 15.59375 C 1.597656 15.582031 1.601562 15.570312 1.601562 15.554688 Z M 1.617188 14.234375 C 1.617188 14.214844 1.617188 14.191406 1.617188 14.167969 L 1.589844 14.257812 C 1.601562 14.242188 1.609375 14.234375 1.617188 14.234375 Z M 1.859375 7.402344 C 1.828125 7.398438 1.75 7.597656 1.671875 7.835938 C 1.636719 7.953125 1.597656 8.078125 1.566406 8.191406 C 1.535156 8.304688 1.511719 8.402344 1.488281 8.464844 C 1.4375 8.828125 1.582031 8.34375 1.640625 8.226562 C 1.628906 8.316406 1.613281 8.390625 1.597656 8.472656 C 1.578125 8.554688 1.558594 8.644531 1.539062 8.765625 C 1.578125 8.734375 1.597656 8.679688 1.613281 8.601562 C 1.628906 8.523438 1.640625 8.421875 1.652344 8.300781 C 1.675781 8.0625 1.722656 7.746094 1.859375 7.402344 Z M 2.589844 5.476562 C 2.523438 5.574219 2.46875 5.671875 2.421875 5.765625 C 2.335938 5.917969 2.253906 6.078125 2.175781 6.234375 C 2.25 6.207031 2.304688 6.011719 2.421875 5.765625 Z M 2.671875 31.414062 C 2.613281 31.289062 2.558594 31.167969 2.503906 31.039062 C 2.523438 31.097656 2.542969 31.152344 2.558594 31.195312 C 2.558594 31.203125 2.5625 31.210938 2.5625 31.21875 C 2.605469 31.300781 2.644531 31.367188 2.671875 31.414062 Z M 3.636719 4.769531 C 3.59375 4.804688 3.542969 4.851562 3.488281 4.910156 C 3.511719 4.890625 3.535156 4.867188 3.5625 4.84375 C 3.582031 4.824219 3.605469 4.804688 3.625 4.78125 C 3.628906 4.777344 3.632812 4.773438 3.636719 4.769531 Z M 6.699219 2.503906 C 6.460938 2.589844 6.238281 2.667969 6.03125 2.730469 C 5.972656 2.808594 5.992188 2.824219 5.972656 2.863281 C 6.207031 2.730469 6.449219 2.613281 6.699219 2.503906 Z M 12.769531 36.390625 C 12.335938 36.378906 12.367188 36.285156 11.886719 36.292969 C 11.910156 36.304688 11.890625 36.316406 11.878906 36.332031 C 12.179688 36.371094 12.238281 36.4375 12.769531 36.390625 Z M 25.636719 1.429688 C 25.332031 1.390625 25.273438 1.328125 24.742188 1.375 C 25.175781 1.382812 25.144531 1.480469 25.625 1.472656 C 25.601562 1.460938 25.621094 1.445312 25.636719 1.429688 Z M 31.539062 34.902344 C 31.304688 35.03125 31.0625 35.152344 30.816406 35.257812 C 31.054688 35.175781 31.277344 35.097656 31.480469 35.03125 C 31.542969 34.957031 31.523438 34.9375 31.539062 34.902344 Z M 34.023438 32.855469 C 34 32.875 33.976562 32.898438 33.953125 32.921875 C 33.929688 32.941406 33.910156 32.960938 33.886719 32.984375 C 33.882812 32.988281 33.878906 32.992188 33.878906 32.996094 C 33.921875 32.960938 33.96875 32.914062 34.023438 32.855469 Z M 34.839844 6.351562 C 34.898438 6.476562 34.953125 6.597656 35.007812 6.722656 C 34.988281 6.667969 34.96875 6.613281 34.953125 6.566406 C 34.953125 6.558594 34.949219 6.554688 34.949219 6.546875 C 34.90625 6.464844 34.867188 6.394531 34.839844 6.351562 Z M 35.339844 31.53125 C 35.261719 31.558594 35.207031 31.753906 35.089844 32 L 34.921875 32.289062 C 34.988281 32.191406 35.042969 32.09375 35.089844 32 C 35.179688 31.847656 35.257812 31.6875 35.339844 31.53125 Z M 35.996094 14.820312 C 35.996094 14.84375 35.996094 14.871094 36 14.902344 C 36.011719 15.246094 36.0625 14.308594 36.035156 13.902344 C 36.019531 13.925781 36.007812 14.035156 36 14.15625 C 36 14.375 35.996094 14.597656 35.996094 14.820312 Z M 35.910156 22.207031 L 35.914062 22.210938 C 35.914062 22.195312 35.914062 22.183594 35.914062 22.171875 C 35.914062 22.183594 35.910156 22.195312 35.910156 22.207031 Z M 35.894531 23.527344 C 35.894531 23.550781 35.894531 23.574219 35.894531 23.597656 L 35.921875 23.507812 C 35.910156 23.523438 35.902344 23.527344 35.894531 23.527344 Z M 35.871094 29.539062 C 35.882812 29.449219 35.898438 29.375 35.914062 29.292969 C 35.929688 29.210938 35.949219 29.121094 35.972656 28.996094 C 35.933594 29.027344 35.914062 29.085938 35.898438 29.164062 C 35.882812 29.242188 35.871094 29.34375 35.859375 29.464844 C 35.835938 29.703125 35.789062 30.019531 35.652344 30.363281 C 35.683594 30.367188 35.765625 30.164062 35.839844 29.929688 C 35.875 29.8125 35.914062 29.6875 35.945312 29.574219 C 35.976562 29.460938 36 29.363281 36.023438 29.300781 C 36.074219 28.933594 35.929688 29.421875 35.871094 29.539062 Z M 36.089844 15.292969 C 35.976562 15.738281 36.09375 15.953125 36.046875 16.5 C 36.039062 16.542969 36.035156 16.589844 36.03125 16.636719 C 36.039062 16.585938 36.042969 16.542969 36.046875 16.5 C 36.085938 16.1875 36.183594 15.839844 36.089844 15.292969 Z M 36.089844 15.292969 "
      fill-opacity="1" fill-rule="nonzero" />
  </g>
  <g clip-path="url(#804eb07ac4)">
    <path fill="#ffffff"
      d="M 27.804688 30.1875 C 27.628906 29.59375 27.304688 29.09375 26.835938 28.6875 C 26.363281 28.285156 25.820312 28.042969 25.203125 27.960938 C 24.863281 27.90625 24.574219 27.550781 24.164062 27.269531 C 29.671875 23.785156 30.949219 17.050781 27.847656 12.132812 C 27.484375 11.566406 27.074219 11.039062 26.613281 10.546875 C 26.152344 10.054688 25.648438 9.609375 25.105469 9.210938 C 24.5625 8.808594 23.988281 8.464844 23.378906 8.171875 C 22.773438 7.878906 22.144531 7.644531 21.492188 7.464844 C 20.839844 7.289062 20.179688 7.171875 19.507812 7.117188 C 18.832031 7.0625 18.160156 7.070312 17.488281 7.136719 C 16.816406 7.207031 16.160156 7.335938 15.511719 7.523438 C 14.863281 7.714844 14.238281 7.960938 13.636719 8.269531 C 13.03125 8.574219 12.460938 8.933594 11.925781 9.347656 C 11.390625 9.761719 10.894531 10.21875 10.445312 10.726562 C 9.996094 11.230469 9.597656 11.773438 9.25 12.355469 C 8.90625 12.9375 8.617188 13.542969 8.382812 14.179688 C 8.152344 14.816406 7.980469 15.464844 7.871094 16.132812 C 7.761719 16.800781 7.71875 17.472656 7.734375 18.148438 C 7.753906 18.824219 7.835938 19.492188 7.980469 20.152344 C 8.125 20.8125 8.328125 21.453125 8.59375 22.074219 C 8.882812 22.75 9.234375 23.386719 9.652344 23.988281 C 10.066406 24.589844 10.539062 25.144531 11.066406 25.652344 C 11.59375 26.160156 12.167969 26.609375 12.785156 27.003906 C 13.402344 27.398438 14.054688 27.726562 14.738281 27.992188 C 15.421875 28.253906 16.125 28.449219 16.847656 28.574219 C 17.570312 28.695312 18.296875 28.746094 19.03125 28.726562 C 19.765625 28.703125 20.488281 28.609375 21.203125 28.445312 C 21.917969 28.277344 22.609375 28.042969 23.273438 27.738281 C 23.429688 27.894531 23.523438 28.078125 23.566406 28.292969 C 23.605469 28.507812 23.582031 28.714844 23.496094 28.914062 C 23.324219 29.355469 23.191406 29.808594 23.097656 30.269531 C 23.046875 30.476562 23.066406 30.679688 23.148438 30.875 C 23.503906 31.574219 23.875 32.269531 24.292969 32.933594 C 24.441406 33.167969 24.773438 33.476562 24.964844 33.441406 C 25.191406 33.398438 25.414062 33.050781 25.53125 32.785156 C 25.695312 32.355469 25.832031 31.917969 25.945312 31.472656 C 26.59375 31.628906 27.140625 31.792969 27.703125 31.886719 C 28.234375 31.972656 28.492188 31.621094 28.285156 31.132812 C 28.144531 30.808594 27.921875 30.515625 27.804688 30.1875 Z M 22.445312 23.519531 C 23.308594 22.945312 24.003906 22.210938 24.523438 21.316406 C 25.042969 20.421875 25.339844 19.460938 25.410156 18.425781 C 25.484375 17.605469 25.410156 16.800781 25.179688 16.007812 C 24.945312 15.214844 24.578125 14.492188 24.074219 13.839844 C 23.828125 13.515625 23.558594 13.214844 23.257812 12.9375 C 22.960938 12.664062 22.640625 12.414062 22.296875 12.195312 C 21.953125 11.976562 21.589844 11.789062 21.214844 11.636719 C 20.835938 11.480469 20.449219 11.363281 20.050781 11.277344 C 19.652344 11.195312 19.25 11.144531 18.839844 11.132812 C 18.433594 11.121094 18.027344 11.144531 17.625 11.203125 C 17.222656 11.265625 16.828125 11.359375 16.441406 11.492188 C 16.054688 11.621094 15.683594 11.785156 15.328125 11.984375 C 14.972656 12.183594 14.636719 12.410156 14.320312 12.667969 C 14.007812 12.925781 13.714844 13.207031 13.453125 13.519531 C 13.1875 13.828125 12.953125 14.160156 12.75 14.511719 C 12.546875 14.863281 12.375 15.230469 12.234375 15.609375 C 12.097656 15.992188 11.996094 16.386719 11.925781 16.785156 C 11.859375 17.1875 11.828125 17.589844 11.832031 17.996094 C 11.839844 18.402344 11.878906 18.804688 11.957031 19.203125 C 12.035156 19.601562 12.148438 19.992188 12.296875 20.371094 C 13.558594 23.5 17.191406 25.664062 21.261719 24.183594 L 22.636719 26.703125 C 18.828125 28.632812 13.113281 27.539062 10.316406 22.949219 C 9.972656 22.402344 9.6875 21.828125 9.464844 21.222656 C 9.238281 20.621094 9.074219 20 8.972656 19.363281 C 8.871094 18.726562 8.835938 18.085938 8.863281 17.441406 C 8.890625 16.796875 8.984375 16.160156 9.140625 15.535156 C 9.296875 14.910156 9.511719 14.304688 9.789062 13.722656 C 10.066406 13.140625 10.402344 12.59375 10.789062 12.078125 C 11.175781 11.5625 11.613281 11.089844 12.097656 10.660156 C 12.578125 10.230469 13.101562 9.855469 13.660156 9.53125 C 18.523438 6.765625 24.539062 8.390625 27.179688 13.230469 C 27.480469 13.769531 27.726562 14.328125 27.921875 14.910156 C 28.113281 15.492188 28.25 16.089844 28.328125 16.695312 C 28.40625 17.304688 28.425781 17.914062 28.386719 18.527344 C 28.347656 19.140625 28.25 19.742188 28.09375 20.335938 C 27.941406 20.929688 27.730469 21.503906 27.464844 22.058594 C 27.199219 22.613281 26.882812 23.136719 26.519531 23.628906 C 26.152344 24.121094 25.742188 24.578125 25.289062 24.992188 C 24.835938 25.40625 24.347656 25.777344 23.824219 26.097656 Z M 21.292969 16.605469 C 21.050781 16.078125 20.683594 15.664062 20.1875 15.359375 C 19.695312 15.058594 19.15625 14.921875 18.578125 14.949219 C 18.171875 14.949219 17.785156 15.035156 17.417969 15.195312 C 17.046875 15.355469 16.722656 15.585938 16.449219 15.878906 C 16.171875 16.171875 15.964844 16.507812 15.828125 16.886719 C 15.691406 17.265625 15.632812 17.65625 15.65625 18.058594 C 15.679688 18.457031 15.78125 18.839844 15.960938 19.199219 C 16.140625 19.5625 16.382812 19.871094 16.691406 20.132812 C 16.996094 20.394531 17.34375 20.582031 17.730469 20.703125 C 18.117188 20.820312 18.507812 20.859375 18.910156 20.816406 C 19.109375 20.761719 19.300781 20.785156 19.484375 20.882812 C 19.664062 20.984375 19.785156 21.128906 19.847656 21.328125 C 20.144531 21.902344 20.5 22.445312 20.851562 23.042969 C 18.28125 24.296875 14.914062 23.046875 13.582031 20.457031 C 13.414062 20.132812 13.277344 19.792969 13.171875 19.441406 C 13.070312 19.089844 13.003906 18.734375 12.96875 18.367188 C 12.9375 18.003906 12.941406 17.640625 12.980469 17.273438 C 13.019531 16.910156 13.09375 16.554688 13.199219 16.203125 C 13.308594 15.855469 13.453125 15.519531 13.625 15.195312 C 13.800781 14.875 14.007812 14.570312 14.242188 14.289062 C 14.476562 14.007812 14.734375 13.75 15.019531 13.519531 C 15.304688 13.289062 15.609375 13.085938 15.933594 12.914062 C 16.257812 12.742188 16.597656 12.601562 16.953125 12.492188 C 17.304688 12.386719 17.667969 12.3125 18.035156 12.277344 C 18.402344 12.238281 18.769531 12.238281 19.140625 12.269531 C 19.507812 12.304688 19.867188 12.375 20.222656 12.476562 C 20.578125 12.582031 20.917969 12.71875 21.246094 12.890625 C 21.574219 13.058594 21.882812 13.261719 22.171875 13.488281 C 22.460938 13.71875 22.726562 13.976562 22.964844 14.257812 C 23.203125 14.539062 23.414062 14.839844 23.59375 15.160156 C 25.019531 17.679688 24.21875 21.097656 21.808594 22.53125 C 21.414062 21.8125 21.003906 21.105469 20.648438 20.371094 C 20.59375 20.253906 20.75 19.992188 20.871094 19.847656 C 21.277344 19.40625 21.515625 18.886719 21.59375 18.292969 C 21.671875 17.699219 21.570312 17.136719 21.289062 16.605469 Z M 18.191406 18.226562 C 18.453125 18.683594 18.757812 19.117188 19.066406 19.597656 C 18.859375 19.664062 18.652344 19.6875 18.441406 19.675781 C 18.226562 19.664062 18.023438 19.613281 17.828125 19.527344 C 17.632812 19.441406 17.460938 19.320312 17.308594 19.171875 C 17.15625 19.019531 17.039062 18.847656 16.949219 18.652344 C 16.859375 18.453125 16.804688 18.242188 16.789062 18.023438 C 16.773438 17.804688 16.796875 17.589844 16.855469 17.378906 C 16.917969 17.167969 17.015625 16.972656 17.144531 16.796875 C 17.277344 16.617188 17.433594 16.46875 17.621094 16.347656 C 17.804688 16.230469 18.003906 16.144531 18.21875 16.097656 C 18.433594 16.046875 18.652344 16.039062 18.871094 16.066406 C 19.089844 16.09375 19.296875 16.160156 19.492188 16.265625 C 19.6875 16.367188 19.859375 16.5 20.003906 16.664062 C 20.628906 17.324219 20.636719 18.289062 19.976562 19.132812 C 19.683594 18.621094 19.417969 18.167969 19.15625 17.714844 C 18.976562 17.40625 18.730469 17.238281 18.375 17.421875 C 18.300781 17.453125 18.238281 17.503906 18.1875 17.566406 C 18.136719 17.628906 18.101562 17.699219 18.082031 17.777344 C 18.0625 17.855469 18.066406 17.9375 18.082031 18.015625 C 18.101562 18.09375 18.136719 18.164062 18.191406 18.226562 Z M 25.332031 30.273438 C 25.042969 30.425781 24.941406 30.941406 24.757812 31.296875 C 24.105469 30.703125 24.085938 30.402344 24.640625 29.011719 C 25.449219 29.25 26.382812 29.246094 26.546875 30.339844 C 26.132812 30.304688 25.640625 30.113281 25.332031 30.273438 Z M 25.332031 30.273438 "
      fill-opacity="1" fill-rule="nonzero" />
  </g>
</svg>