<svg xmlns="http://www.w3.org/2000/svg" xmlns:xlink="http://www.w3.org/1999/xlink" width="50" zoomAndPan="magnify" viewBox="0 0 37.5 37.499999" height="50" preserveAspectRatio="xMidYMid meet" version="1.0"><defs><clipPath id="2dfd6a86e9"><path d="M 1.128906 1.40625 L 36.378906 1.40625 L 36.378906 36.65625 L 1.128906 36.65625 Z M 1.128906 1.40625 " clip-rule="nonzero"/></clipPath><clipPath id="ae2ff1c64a"><path d="M 8 5.277344 L 30.40625 5.277344 L 30.40625 32 L 8 32 Z M 8 5.277344 " clip-rule="nonzero"/></clipPath></defs><g clip-path="url(#2dfd6a86e9)"><path fill="#146356" d="M 4.75 3.210938 L 4.691406 3.304688 C 4.59375 3.359375 4.539062 3.382812 4.75 3.210938 Z M 14.632812 1.558594 L 14.460938 1.597656 C 14.496094 1.601562 14.539062 1.605469 14.578125 1.609375 C 14.621094 1.597656 14.640625 1.582031 14.632812 1.558594 Z M 2.394531 5.761719 C 2.34375 5.816406 2.269531 5.917969 2.191406 6.0625 C 2.277344 5.960938 2.371094 5.84375 2.464844 5.722656 C 2.46875 5.691406 2.441406 5.703125 2.394531 5.761719 Z M 17.398438 1.582031 C 17.585938 1.589844 17.75 1.59375 17.921875 1.601562 C 17.804688 1.582031 17.621094 1.574219 17.398438 1.582031 Z M 2.378906 32.394531 C 2.394531 32.433594 2.414062 32.480469 2.449219 32.550781 Z M 32.820312 34.761719 L 32.761719 34.855469 C 32.976562 34.683594 32.921875 34.703125 32.820312 34.761719 Z M 22.882812 36.503906 L 23.054688 36.464844 C 23.015625 36.460938 22.976562 36.460938 22.933594 36.457031 C 22.894531 36.46875 22.871094 36.484375 22.882812 36.503906 Z M 35.121094 32.300781 C 35.167969 32.246094 35.242188 32.148438 35.324219 32 C 35.238281 32.101562 35.140625 32.21875 35.046875 32.339844 C 35.046875 32.371094 35.070312 32.359375 35.121094 32.300781 Z M 20.113281 36.484375 C 19.925781 36.476562 19.761719 36.472656 19.589844 36.464844 C 19.707031 36.480469 19.890625 36.492188 20.113281 36.484375 Z M 35.132812 5.667969 C 35.117188 5.632812 35.097656 5.582031 35.0625 5.515625 Z M 36.136719 22 C 36.082031 23.628906 36.179688 23.910156 36.152344 25.65625 L 36.195312 24.839844 C 36.335938 25.746094 36.117188 27.519531 36.277344 27.789062 C 36.273438 27.921875 36.269531 28.046875 36.257812 28.1875 C 36.246094 28.324219 36.238281 28.460938 36.21875 28.59375 C 36.183594 28.859375 36.128906 29.125 36.070312 29.390625 C 35.945312 29.925781 35.773438 30.476562 35.546875 31.109375 C 35.664062 30.949219 35.761719 30.78125 35.871094 30.609375 C 35.746094 31.007812 35.59375 31.394531 35.417969 31.773438 L 35.320312 31.746094 C 35.140625 32.101562 35.050781 32.285156 35.046875 32.339844 C 34.789062 32.679688 34.5 33.09375 34.144531 33.503906 C 33.789062 33.914062 33.367188 34.320312 32.894531 34.644531 L 32.820312 34.761719 C 32.746094 34.808594 32.640625 34.867188 32.609375 34.878906 C 32.578125 34.925781 32.503906 34.996094 32.410156 35.074219 C 32.316406 35.148438 32.203125 35.230469 32.097656 35.304688 C 31.875 35.453125 31.667969 35.582031 31.660156 35.625 C 31.75 35.589844 31.859375 35.53125 31.976562 35.46875 C 32.097656 35.410156 32.21875 35.335938 32.328125 35.269531 C 32.4375 35.207031 32.53125 35.140625 32.59375 35.09375 C 32.652344 35.046875 32.683594 35.015625 32.660156 35.015625 C 33.070312 34.769531 32.851562 34.960938 32.449219 35.242188 C 32.042969 35.523438 31.429688 35.835938 31.140625 35.953125 C 31.734375 35.628906 30.945312 35.992188 30.582031 36.097656 C 30.53125 36.128906 30.652344 36.09375 30.714844 36.089844 C 30.175781 36.320312 29.777344 36.367188 29.4375 36.410156 C 29.265625 36.425781 29.105469 36.441406 28.945312 36.46875 C 28.78125 36.488281 28.617188 36.535156 28.425781 36.589844 L 28.21875 36.515625 C 28.066406 36.539062 27.914062 36.546875 27.765625 36.566406 C 27.609375 36.582031 27.476562 36.589844 27.332031 36.601562 C 27.253906 36.417969 26.121094 36.582031 25.980469 36.414062 C 25.003906 36.410156 26.113281 36.519531 25.761719 36.5 C 24.851562 36.535156 23.246094 36.371094 22.933594 36.457031 C 22.597656 36.429688 22.253906 36.421875 21.910156 36.421875 C 21.757812 36.4375 21.609375 36.449219 21.464844 36.449219 C 20.925781 36.445312 20.847656 36.429688 20.925781 36.410156 C 20.820312 36.40625 20.714844 36.40625 20.617188 36.398438 L 20.570312 36.476562 C 20.25 36.460938 19.871094 36.425781 19.546875 36.433594 C 19.601562 36.441406 19.648438 36.453125 19.675781 36.464844 C 19.640625 36.460938 19.578125 36.453125 19.5 36.449219 C 19.519531 36.457031 19.550781 36.460938 19.589844 36.464844 C 19.175781 36.453125 18.789062 36.441406 18.417969 36.433594 C 18.390625 36.4375 18.367188 36.441406 18.34375 36.441406 C 18.355469 36.476562 19.335938 36.480469 18.703125 36.496094 C 17.691406 36.46875 17.011719 36.476562 16.394531 36.496094 C 16.492188 36.503906 16.628906 36.511719 16.824219 36.515625 C 16.472656 36.542969 16.042969 36.539062 15.566406 36.523438 C 15.054688 36.539062 14.5 36.554688 13.75 36.546875 L 13.933594 36.605469 C 13.699219 36.59375 13.519531 36.566406 13.292969 36.585938 L 13.417969 36.625 C 13.273438 36.625 12.675781 36.605469 11.945312 36.589844 C 11.578125 36.582031 11.179688 36.574219 10.785156 36.566406 C 10.386719 36.566406 9.996094 36.566406 9.648438 36.5625 L 9.835938 36.585938 L 10.011719 36.601562 L 10.359375 36.636719 C 10.152344 36.625 9.957031 36.613281 9.742188 36.59375 L 9.417969 36.566406 C 9.308594 36.554688 9.203125 36.535156 9.09375 36.523438 L 9.230469 36.636719 C 9.007812 36.570312 8.515625 36.515625 7.9375 36.382812 C 7.359375 36.253906 6.695312 36.035156 6.148438 35.75 L 6.128906 35.8125 L 5.800781 35.625 C 5.695312 35.558594 5.589844 35.488281 5.484375 35.421875 L 5.683594 35.589844 C 5.355469 35.40625 5.03125 35.15625 4.707031 34.890625 C 4.386719 34.617188 4.074219 34.320312 3.753906 34.035156 C 4.15625 34.410156 4.199219 34.566406 4.128906 34.566406 C 3.988281 34.4375 3.863281 34.296875 3.734375 34.160156 C 3.609375 34.011719 3.484375 33.875 3.371094 33.722656 C 3.132812 33.429688 2.925781 33.113281 2.730469 32.792969 C 2.699219 32.78125 2.539062 32.570312 2.441406 32.433594 C 2.367188 32.324219 2.320312 32.265625 2.375 32.398438 L 2.257812 32.148438 C 2.203125 32.007812 2.144531 31.871094 2.09375 31.734375 C 2.085938 31.761719 2.082031 31.789062 2.078125 31.816406 C 1.875 31.421875 1.710938 31.015625 1.582031 30.601562 C 1.457031 30.1875 1.371094 29.769531 1.3125 29.351562 C 1.261719 28.929688 1.238281 28.511719 1.25 28.097656 C 1.261719 27.710938 1.277344 27.328125 1.289062 26.941406 C 1.339844 25.410156 1.378906 23.878906 1.269531 22.238281 L 1.25 22.296875 L 1.367188 20.367188 C 1.355469 20.015625 1.261719 19.914062 1.230469 19.339844 C 1.328125 19.613281 1.242188 18.230469 1.324219 17.871094 C 1.285156 17.417969 1.261719 17.882812 1.222656 18.007812 C 1.128906 16.152344 1.285156 14.683594 1.21875 12.660156 C 1.351562 14.675781 1.320312 14.683594 1.371094 16.066406 C 1.429688 14.433594 1.332031 14.15625 1.359375 12.410156 L 1.316406 13.226562 C 1.171875 12.320312 1.394531 10.546875 1.234375 10.277344 C 1.238281 10.144531 1.242188 10.019531 1.253906 9.878906 C 1.261719 9.742188 1.269531 9.605469 1.292969 9.472656 C 1.328125 9.203125 1.378906 8.941406 1.441406 8.675781 C 1.566406 8.136719 1.734375 7.589844 1.964844 6.953125 C 1.847656 7.113281 1.75 7.285156 1.640625 7.457031 C 1.765625 7.058594 1.917969 6.667969 2.09375 6.292969 L 2.1875 6.320312 C 2.371094 5.960938 2.457031 5.78125 2.460938 5.722656 C 2.722656 5.386719 3.011719 4.972656 3.367188 4.5625 C 3.722656 4.152344 4.140625 3.746094 4.617188 3.421875 L 4.6875 3.304688 C 4.765625 3.257812 4.871094 3.195312 4.898438 3.1875 C 4.933594 3.136719 5.007812 3.066406 5.097656 2.988281 C 5.191406 2.914062 5.304688 2.835938 5.414062 2.757812 C 5.636719 2.613281 5.84375 2.480469 5.847656 2.4375 C 5.761719 2.476562 5.652344 2.535156 5.535156 2.597656 C 5.414062 2.65625 5.292969 2.726562 5.183594 2.796875 C 5.074219 2.859375 4.980469 2.925781 4.917969 2.972656 C 4.855469 3.019531 4.828125 3.050781 4.847656 3.050781 C 4.441406 3.292969 4.660156 3.105469 5.0625 2.824219 C 5.464844 2.542969 6.078125 2.230469 6.371094 2.113281 C 5.777344 2.4375 6.566406 2.074219 6.925781 1.96875 C 6.980469 1.9375 6.859375 1.972656 6.796875 1.976562 C 7.332031 1.746094 7.734375 1.699219 8.074219 1.65625 C 8.246094 1.636719 8.402344 1.625 8.566406 1.597656 C 8.730469 1.574219 8.894531 1.527344 9.085938 1.476562 L 9.292969 1.550781 C 9.445312 1.523438 9.59375 1.515625 9.746094 1.5 C 9.898438 1.484375 10.035156 1.476562 10.179688 1.464844 C 10.257812 1.644531 11.390625 1.480469 11.527344 1.648438 C 12.507812 1.652344 11.398438 1.546875 11.746094 1.566406 C 12.660156 1.53125 14.265625 1.695312 14.574219 1.609375 C 14.910156 1.632812 15.257812 1.640625 15.597656 1.644531 C 15.753906 1.628906 15.902344 1.617188 16.046875 1.617188 C 16.582031 1.621094 16.660156 1.636719 16.585938 1.65625 C 16.691406 1.65625 16.792969 1.660156 16.890625 1.664062 L 16.9375 1.589844 C 17.261719 1.605469 17.636719 1.636719 17.960938 1.632812 C 17.90625 1.625 17.863281 1.613281 17.835938 1.597656 C 17.871094 1.605469 17.933594 1.609375 18.011719 1.617188 C 17.992188 1.609375 17.960938 1.605469 17.921875 1.597656 C 18.335938 1.613281 18.71875 1.625 19.09375 1.628906 C 19.117188 1.628906 19.144531 1.625 19.164062 1.621094 C 19.15625 1.589844 18.175781 1.585938 18.804688 1.570312 C 19.820312 1.597656 20.496094 1.589844 21.113281 1.570312 C 21.019531 1.5625 20.882812 1.554688 20.683594 1.546875 C 21.039062 1.523438 21.46875 1.527344 21.945312 1.542969 C 22.457031 1.527344 23.007812 1.511719 23.757812 1.519531 L 23.578125 1.460938 C 23.8125 1.472656 23.992188 1.496094 24.214844 1.476562 L 24.09375 1.4375 C 24.238281 1.4375 24.835938 1.457031 25.566406 1.476562 C 25.929688 1.484375 26.332031 1.488281 26.722656 1.496094 C 27.121094 1.5 27.515625 1.5 27.863281 1.5 L 27.675781 1.480469 L 27.5 1.460938 L 27.148438 1.429688 C 27.355469 1.445312 27.554688 1.453125 27.769531 1.472656 L 28.09375 1.5 C 28.199219 1.511719 28.308594 1.53125 28.417969 1.546875 L 28.28125 1.429688 C 28.503906 1.496094 28.996094 1.550781 29.574219 1.683594 C 30.152344 1.8125 30.8125 2.03125 31.363281 2.316406 L 31.382812 2.253906 L 31.707031 2.441406 C 31.816406 2.507812 31.921875 2.578125 32.023438 2.644531 L 31.828125 2.476562 C 32.152344 2.660156 32.480469 2.910156 32.804688 3.175781 C 33.125 3.449219 33.4375 3.746094 33.753906 4.03125 C 33.355469 3.65625 33.3125 3.5 33.382812 3.5 C 33.519531 3.628906 33.644531 3.773438 33.777344 3.90625 C 33.898438 4.054688 34.027344 4.191406 34.140625 4.34375 C 34.378906 4.636719 34.585938 4.953125 34.78125 5.273438 C 34.8125 5.285156 34.972656 5.496094 35.066406 5.632812 C 35.144531 5.742188 35.191406 5.800781 35.136719 5.667969 L 35.25 5.921875 C 35.308594 6.058594 35.367188 6.195312 35.417969 6.332031 C 35.421875 6.304688 35.429688 6.277344 35.433594 6.25 C 35.636719 6.644531 35.800781 7.050781 35.929688 7.464844 C 36.054688 7.878906 36.140625 8.296875 36.199219 8.714844 C 36.246094 9.136719 36.273438 9.554688 36.261719 9.96875 C 36.25 10.355469 36.234375 10.738281 36.222656 11.125 C 36.167969 12.65625 36.128906 14.1875 36.242188 15.828125 L 36.261719 15.769531 L 36.144531 17.699219 C 36.15625 18.050781 36.246094 18.152344 36.28125 18.726562 C 36.183594 18.453125 36.269531 19.835938 36.1875 20.195312 C 36.226562 20.648438 36.25 20.183594 36.289062 20.0625 C 36.382812 21.914062 36.222656 23.382812 36.292969 25.40625 C 36.160156 23.390625 36.191406 23.382812 36.136719 22 Z M 1.421875 22.621094 C 1.535156 22.179688 1.421875 21.960938 1.46875 21.414062 C 1.472656 21.371094 1.476562 21.324219 1.480469 21.277344 C 1.472656 21.328125 1.472656 21.371094 1.46875 21.414062 C 1.425781 21.726562 1.328125 22.078125 1.421875 22.621094 Z M 1.519531 23.09375 C 1.515625 23.070312 1.515625 23.042969 1.515625 23.015625 C 1.5 22.667969 1.449219 23.605469 1.476562 24.011719 C 1.496094 23.988281 1.503906 23.882812 1.511719 23.757812 C 1.511719 23.539062 1.515625 23.316406 1.519531 23.09375 Z M 1.601562 15.707031 L 1.597656 15.703125 C 1.597656 15.71875 1.597656 15.730469 1.597656 15.742188 C 1.597656 15.730469 1.601562 15.71875 1.601562 15.707031 Z M 1.617188 14.386719 C 1.617188 14.363281 1.617188 14.339844 1.617188 14.320312 L 1.589844 14.40625 C 1.601562 14.394531 1.609375 14.386719 1.617188 14.386719 Z M 1.859375 7.550781 C 1.828125 7.546875 1.75 7.75 1.671875 7.984375 C 1.636719 8.105469 1.597656 8.230469 1.566406 8.339844 C 1.535156 8.453125 1.511719 8.554688 1.488281 8.613281 C 1.4375 8.980469 1.582031 8.492188 1.640625 8.375 C 1.628906 8.464844 1.613281 8.539062 1.597656 8.621094 C 1.578125 8.703125 1.558594 8.792969 1.539062 8.917969 C 1.578125 8.886719 1.597656 8.828125 1.613281 8.75 C 1.628906 8.671875 1.640625 8.570312 1.652344 8.453125 C 1.675781 8.210938 1.722656 7.894531 1.859375 7.550781 Z M 2.589844 5.625 C 2.523438 5.722656 2.46875 5.820312 2.421875 5.914062 C 2.335938 6.070312 2.253906 6.226562 2.175781 6.382812 C 2.25 6.359375 2.304688 6.160156 2.421875 5.914062 Z M 2.671875 31.5625 C 2.613281 31.441406 2.558594 31.316406 2.503906 31.191406 C 2.523438 31.25 2.542969 31.300781 2.558594 31.347656 C 2.558594 31.355469 2.5625 31.359375 2.5625 31.367188 C 2.605469 31.449219 2.644531 31.519531 2.671875 31.5625 Z M 3.636719 4.917969 C 3.59375 4.953125 3.542969 5 3.488281 5.058594 C 3.511719 5.039062 3.535156 5.019531 3.5625 4.996094 C 3.582031 4.976562 3.605469 4.953125 3.625 4.929688 C 3.628906 4.925781 3.632812 4.921875 3.636719 4.917969 Z M 6.699219 2.65625 C 6.460938 2.738281 6.238281 2.820312 6.03125 2.882812 C 5.972656 2.957031 5.992188 2.976562 5.972656 3.011719 C 6.207031 2.882812 6.449219 2.761719 6.699219 2.65625 Z M 12.769531 36.539062 C 12.335938 36.53125 12.367188 36.433594 11.886719 36.441406 C 11.910156 36.453125 11.890625 36.46875 11.878906 36.484375 C 12.179688 36.523438 12.238281 36.585938 12.769531 36.539062 Z M 25.636719 1.582031 C 25.332031 1.542969 25.273438 1.476562 24.742188 1.523438 C 25.175781 1.535156 25.144531 1.628906 25.625 1.625 C 25.601562 1.609375 25.621094 1.597656 25.636719 1.582031 Z M 31.539062 35.050781 C 31.304688 35.183594 31.0625 35.300781 30.816406 35.410156 C 31.054688 35.324219 31.277344 35.246094 31.480469 35.183594 C 31.542969 35.105469 31.523438 35.089844 31.539062 35.050781 Z M 34.023438 33.003906 C 34 33.027344 33.976562 33.046875 33.953125 33.070312 C 33.929688 33.089844 33.910156 33.109375 33.886719 33.132812 C 33.882812 33.136719 33.878906 33.140625 33.878906 33.144531 C 33.921875 33.109375 33.96875 33.0625 34.023438 33.003906 Z M 34.839844 6.503906 C 34.898438 6.625 34.953125 6.75 35.007812 6.875 C 34.988281 6.816406 34.96875 6.761719 34.953125 6.71875 C 34.953125 6.710938 34.949219 6.703125 34.949219 6.695312 C 34.90625 6.613281 34.867188 6.546875 34.839844 6.503906 Z M 35.339844 31.679688 C 35.261719 31.707031 35.207031 31.902344 35.089844 32.148438 L 34.921875 32.441406 C 34.988281 32.339844 35.042969 32.246094 35.089844 32.148438 C 35.179688 31.996094 35.257812 31.839844 35.339844 31.679688 Z M 35.996094 14.972656 C 35.996094 14.996094 35.996094 15.023438 36 15.050781 C 36.011719 15.398438 36.0625 14.460938 36.035156 14.054688 C 36.019531 14.074219 36.007812 14.183594 36 14.304688 C 36 14.527344 35.996094 14.75 35.996094 14.972656 Z M 35.910156 22.359375 L 35.914062 22.359375 C 35.914062 22.347656 35.914062 22.332031 35.914062 22.320312 C 35.914062 22.332031 35.910156 22.347656 35.910156 22.359375 Z M 35.894531 23.679688 C 35.894531 23.703125 35.894531 23.722656 35.894531 23.746094 L 35.921875 23.65625 C 35.910156 23.671875 35.902344 23.679688 35.894531 23.679688 Z M 35.871094 29.691406 C 35.882812 29.601562 35.898438 29.527344 35.914062 29.445312 C 35.929688 29.363281 35.949219 29.269531 35.972656 29.148438 C 35.933594 29.179688 35.914062 29.234375 35.898438 29.316406 C 35.882812 29.394531 35.871094 29.492188 35.859375 29.613281 C 35.835938 29.851562 35.789062 30.167969 35.652344 30.511719 C 35.683594 30.515625 35.765625 30.316406 35.839844 30.082031 C 35.875 29.960938 35.914062 29.835938 35.945312 29.722656 C 35.976562 29.609375 36 29.511719 36.023438 29.449219 C 36.074219 29.085938 35.929688 29.570312 35.871094 29.691406 Z M 36.089844 15.441406 C 35.976562 15.886719 36.09375 16.105469 36.046875 16.648438 C 36.039062 16.695312 36.035156 16.742188 36.03125 16.785156 C 36.039062 16.734375 36.042969 16.695312 36.046875 16.648438 C 36.085938 16.339844 36.183594 15.988281 36.089844 15.441406 Z M 36.089844 15.441406 " fill-opacity="1" fill-rule="nonzero"/></g><g clip-path="url(#ae2ff1c64a)"><path fill="#ffffff" d="M 28.125 13.902344 C 28.195312 13.851562 28.246094 13.789062 28.277344 13.710938 C 28.398438 13.429688 28.46875 13.140625 28.492188 12.839844 C 28.519531 12.535156 28.496094 12.238281 28.421875 11.941406 C 28.351562 11.648438 28.234375 11.371094 28.074219 11.113281 C 27.914062 10.855469 27.714844 10.628906 27.480469 10.433594 C 27.234375 10.246094 26.964844 10.101562 26.667969 10 C 26.375 9.898438 26.070312 9.84375 25.761719 9.839844 C 25.449219 9.835938 25.144531 9.882812 24.847656 9.976562 C 24.550781 10.070312 24.277344 10.207031 24.023438 10.390625 C 24 10.410156 23.972656 10.433594 23.953125 10.457031 C 22.84375 9.925781 21.675781 9.589844 20.453125 9.445312 L 20.453125 7.773438 L 21.769531 7.773438 C 21.84375 7.773438 21.910156 7.757812 21.972656 7.726562 C 22.035156 7.695312 22.089844 7.652344 22.132812 7.59375 C 22.171875 7.539062 22.203125 7.476562 22.214844 7.410156 C 22.226562 7.339844 22.222656 7.273438 22.203125 7.203125 C 22.222656 7.15625 22.234375 7.105469 22.234375 7.050781 L 22.234375 5.734375 C 22.230469 5.609375 22.1875 5.5 22.097656 5.410156 C 22.007812 5.324219 21.898438 5.277344 21.769531 5.277344 C 21.714844 5.28125 21.65625 5.292969 21.601562 5.3125 C 21.542969 5.289062 21.480469 5.277344 21.417969 5.277344 L 16.699219 5.277344 C 16.539062 5.269531 16.417969 5.335938 16.332031 5.46875 C 16.09375 5.519531 15.972656 5.667969 15.972656 5.910156 L 15.972656 7.226562 C 15.972656 7.265625 15.976562 7.304688 15.988281 7.339844 C 15.988281 7.460938 16.03125 7.566406 16.117188 7.648438 C 16.203125 7.734375 16.308594 7.773438 16.429688 7.773438 L 17.75 7.773438 L 17.75 9.453125 C 16.511719 9.609375 15.332031 9.960938 14.214844 10.507812 C 14.183594 10.460938 14.144531 10.421875 14.101562 10.390625 C 13.851562 10.207031 13.574219 10.070312 13.277344 9.976562 C 12.980469 9.882812 12.679688 9.835938 12.367188 9.839844 C 12.054688 9.84375 11.75 9.898438 11.457031 10 C 11.164062 10.101562 10.890625 10.246094 10.644531 10.433594 C 10.410156 10.628906 10.214844 10.855469 10.050781 11.113281 C 9.890625 11.371094 9.773438 11.648438 9.703125 11.941406 C 9.632812 12.238281 9.609375 12.535156 9.632812 12.839844 C 9.65625 13.140625 9.730469 13.429688 9.847656 13.710938 C 9.898438 13.832031 9.984375 13.914062 10.109375 13.953125 C 9.855469 14.304688 9.621094 14.667969 9.410156 15.046875 C 9.199219 15.421875 9.011719 15.8125 8.847656 16.210938 C 8.683594 16.609375 8.542969 17.015625 8.429688 17.429688 C 8.3125 17.847656 8.222656 18.265625 8.15625 18.691406 C 8.089844 19.117188 8.050781 19.546875 8.035156 19.976562 C 8.019531 20.410156 8.03125 20.839844 8.070312 21.265625 C 8.105469 21.695312 8.167969 22.121094 8.253906 22.542969 C 8.34375 22.964844 8.453125 23.382812 8.589844 23.789062 C 8.726562 24.199219 8.886719 24.601562 9.074219 24.988281 C 9.257812 25.378906 9.464844 25.757812 9.695312 26.125 C 9.921875 26.492188 10.171875 26.84375 10.445312 27.179688 C 10.714844 27.515625 11.007812 27.835938 11.316406 28.140625 C 11.625 28.445312 11.953125 28.726562 12.296875 28.992188 C 12.640625 29.257812 12.996094 29.503906 13.371094 29.726562 C 13.742188 29.949219 14.128906 30.152344 14.523438 30.332031 C 14.921875 30.511719 15.328125 30.664062 15.742188 30.796875 C 16.15625 30.929688 16.578125 31.035156 17.007812 31.117188 C 17.433594 31.203125 17.867188 31.257812 18.300781 31.292969 C 18.734375 31.324219 19.171875 31.332031 19.605469 31.3125 C 20.042969 31.296875 20.472656 31.253906 20.90625 31.183594 C 21.335938 31.117188 21.761719 31.023438 22.179688 30.90625 C 22.597656 30.785156 23.011719 30.644531 23.414062 30.480469 C 23.816406 30.3125 24.207031 30.125 24.585938 29.914062 C 24.964844 29.703125 25.332031 29.46875 25.683594 29.214844 C 26.035156 28.964844 26.371094 28.691406 26.691406 28.398438 C 27.011719 28.105469 27.3125 27.792969 27.597656 27.464844 C 27.878906 27.136719 28.140625 26.792969 28.382812 26.4375 C 28.625 26.078125 28.84375 25.707031 29.042969 25.324219 C 29.242188 24.9375 29.414062 24.542969 29.566406 24.140625 C 29.714844 23.734375 29.84375 23.324219 29.945312 22.90625 C 30.046875 22.488281 30.121094 22.0625 30.171875 21.636719 C 30.222656 21.207031 30.25 20.777344 30.25 20.347656 C 30.253906 17.96875 29.542969 15.820312 28.125 13.902344 Z M 26.90625 11.148438 C 27.191406 11.390625 27.390625 11.695312 27.5 12.054688 C 27.609375 12.414062 27.609375 12.773438 27.503906 13.132812 C 26.738281 12.269531 25.863281 11.542969 24.867188 10.949219 C 25.199219 10.785156 25.546875 10.722656 25.914062 10.757812 C 26.28125 10.792969 26.613281 10.921875 26.90625 11.144531 Z M 16.894531 6.859375 L 16.894531 6.1875 L 21.308594 6.1875 L 21.308594 6.859375 Z M 19.53125 7.773438 L 19.53125 9.375 C 19.398438 9.371094 19.269531 9.367188 19.136719 9.367188 C 18.980469 9.367188 18.828125 9.371094 18.671875 9.378906 L 18.671875 7.773438 Z M 11.222656 11.144531 C 11.53125 10.914062 11.875 10.785156 12.257812 10.753906 C 12.640625 10.726562 13 10.804688 13.335938 10.988281 C 12.324219 11.605469 11.433594 12.359375 10.664062 13.253906 C 10.527344 12.878906 10.511719 12.5 10.613281 12.113281 C 10.714844 11.726562 10.917969 11.40625 11.222656 11.144531 Z M 19.136719 30.414062 C 18.46875 30.414062 17.804688 30.351562 17.148438 30.222656 C 16.492188 30.09375 15.855469 29.902344 15.238281 29.648438 C 14.617188 29.394531 14.03125 29.085938 13.476562 28.71875 C 12.917969 28.351562 12.402344 27.933594 11.929688 27.464844 C 11.457031 27 11.035156 26.488281 10.664062 25.941406 C 10.289062 25.390625 9.976562 24.808594 9.722656 24.199219 C 9.464844 23.589844 9.269531 22.960938 9.140625 22.3125 C 9.011719 21.664062 8.945312 21.007812 8.945312 20.347656 C 8.945312 19.683594 9.011719 19.03125 9.140625 18.382812 C 9.269531 17.734375 9.464844 17.105469 9.71875 16.492188 C 9.976562 15.882812 10.289062 15.300781 10.664062 14.753906 C 11.035156 14.203125 11.457031 13.695312 11.929688 13.226562 C 12.402344 12.757812 12.917969 12.339844 13.472656 11.972656 C 14.03125 11.605469 14.617188 11.296875 15.234375 11.042969 C 15.855469 10.792969 16.492188 10.601562 17.148438 10.472656 C 17.804688 10.34375 18.46875 10.277344 19.136719 10.277344 C 19.804688 10.277344 20.46875 10.34375 21.125 10.472656 C 21.78125 10.601562 22.417969 10.792969 23.035156 11.042969 C 23.65625 11.296875 24.242188 11.609375 24.796875 11.976562 C 25.355469 12.34375 25.871094 12.761719 26.34375 13.226562 C 26.816406 13.695312 27.238281 14.203125 27.609375 14.753906 C 27.980469 15.304688 28.296875 15.882812 28.550781 16.496094 C 28.808594 17.105469 29 17.734375 29.132812 18.382812 C 29.261719 19.03125 29.328125 19.6875 29.328125 20.347656 C 29.324219 21.007812 29.257812 21.664062 29.128906 22.3125 C 28.996094 22.957031 28.804688 23.585938 28.546875 24.199219 C 28.292969 24.808594 27.976562 25.386719 27.605469 25.9375 C 27.234375 26.488281 26.8125 26.996094 26.339844 27.460938 C 25.867188 27.929688 25.351562 28.347656 24.796875 28.714844 C 24.238281 29.082031 23.652344 29.390625 23.035156 29.644531 C 22.417969 29.898438 21.78125 30.089844 21.125 30.21875 C 20.46875 30.347656 19.804688 30.414062 19.136719 30.414062 Z M 24.191406 16.753906 C 24.296875 16.855469 24.347656 16.980469 24.347656 17.121094 C 24.347656 17.265625 24.296875 17.386719 24.195312 17.488281 L 19 22.625 C 18.898438 22.726562 18.773438 22.777344 18.628906 22.78125 C 18.484375 22.78125 18.359375 22.730469 18.257812 22.628906 C 18.238281 22.609375 18.21875 22.585938 18.199219 22.5625 L 16.0625 20.050781 C 15.964844 19.933594 15.929688 19.800781 15.949219 19.65625 C 15.96875 19.507812 16.039062 19.390625 16.164062 19.300781 C 16.285156 19.214844 16.421875 19.1875 16.566406 19.214844 C 16.714844 19.242188 16.832031 19.320312 16.910156 19.445312 L 18.6875 21.46875 L 23.453125 16.757812 C 23.554688 16.660156 23.679688 16.609375 23.820312 16.609375 C 23.964844 16.609375 24.089844 16.660156 24.191406 16.753906 Z M 19.136719 11.683594 C 18.5625 11.683594 17.992188 11.738281 17.429688 11.851562 C 16.867188 11.960938 16.320312 12.125 15.789062 12.34375 C 15.257812 12.558594 14.753906 12.824219 14.273438 13.140625 C 13.796875 13.457031 13.355469 13.816406 12.949219 14.214844 C 12.542969 14.617188 12.179688 15.054688 11.859375 15.527344 C 11.542969 15.996094 11.273438 16.496094 11.050781 17.019531 C 10.832031 17.542969 10.664062 18.085938 10.554688 18.640625 C 10.441406 19.199219 10.386719 19.761719 10.386719 20.328125 C 10.386719 20.894531 10.441406 21.457031 10.554688 22.015625 C 10.664062 22.570312 10.832031 23.113281 11.050781 23.636719 C 11.269531 24.160156 11.539062 24.660156 11.859375 25.132812 C 12.179688 25.605469 12.542969 26.039062 12.949219 26.441406 C 13.351562 26.84375 13.796875 27.203125 14.273438 27.515625 C 14.75 27.832031 15.253906 28.097656 15.785156 28.316406 C 16.316406 28.535156 16.863281 28.699219 17.425781 28.808594 C 17.992188 28.917969 18.558594 28.976562 19.132812 28.976562 C 19.707031 28.976562 20.277344 28.917969 20.839844 28.808594 C 21.40625 28.699219 21.953125 28.535156 22.484375 28.316406 C 23.015625 28.101562 23.519531 27.835938 23.996094 27.519531 C 24.472656 27.203125 24.914062 26.84375 25.320312 26.445312 C 25.726562 26.042969 26.089844 25.605469 26.410156 25.132812 C 26.730469 24.660156 27 24.164062 27.21875 23.640625 C 27.4375 23.113281 27.605469 22.574219 27.71875 22.019531 C 27.828125 21.460938 27.886719 20.898438 27.886719 20.332031 C 27.886719 19.765625 27.828125 19.203125 27.714844 18.644531 C 27.605469 18.089844 27.4375 17.546875 27.21875 17.023438 C 26.996094 16.5 26.726562 16.003906 26.410156 15.53125 C 26.089844 15.058594 25.726562 14.621094 25.320312 14.222656 C 24.914062 13.820312 24.472656 13.460938 23.996094 13.144531 C 23.519531 12.832031 23.015625 12.5625 22.484375 12.347656 C 21.953125 12.128906 21.40625 11.964844 20.84375 11.851562 C 20.28125 11.742188 19.710938 11.6875 19.136719 11.683594 Z M 19.46875 28.03125 C 19.472656 28.011719 19.472656 27.992188 19.472656 27.976562 L 19.472656 26.566406 C 19.472656 26.441406 19.429688 26.335938 19.339844 26.246094 C 19.25 26.15625 19.140625 26.113281 19.011719 26.113281 C 18.886719 26.113281 18.777344 26.15625 18.6875 26.246094 C 18.597656 26.335938 18.550781 26.441406 18.550781 26.566406 L 18.550781 27.972656 C 18.550781 27.988281 18.554688 28 18.554688 28.011719 C 18.097656 27.980469 17.648438 27.90625 17.207031 27.792969 C 16.765625 27.679688 16.335938 27.53125 15.917969 27.34375 C 15.5 27.160156 15.105469 26.9375 14.726562 26.679688 C 14.351562 26.425781 14 26.140625 13.671875 25.824219 C 13.347656 25.507812 13.050781 25.164062 12.785156 24.796875 C 12.519531 24.429688 12.289062 24.039062 12.09375 23.632812 C 11.894531 23.222656 11.738281 22.800781 11.617188 22.367188 C 11.496094 21.929688 11.414062 21.488281 11.371094 21.039062 C 11.394531 21.042969 11.421875 21.046875 11.449219 21.046875 L 12.515625 21.046875 C 12.644531 21.042969 12.753906 21 12.84375 20.914062 C 12.988281 20.769531 13.023438 20.601562 12.945312 20.414062 C 12.863281 20.226562 12.722656 20.132812 12.515625 20.132812 L 11.449219 20.132812 C 11.414062 20.132812 11.375 20.140625 11.339844 20.148438 C 11.351562 19.679688 11.40625 19.214844 11.503906 18.753906 C 11.601562 18.292969 11.742188 17.847656 11.921875 17.410156 C 12.101562 16.976562 12.320312 16.5625 12.578125 16.164062 C 12.835938 15.769531 13.128906 15.402344 13.453125 15.058594 C 13.78125 14.714844 14.132812 14.40625 14.515625 14.125 C 14.898438 13.847656 15.304688 13.605469 15.734375 13.398438 C 16.160156 13.195312 16.605469 13.027344 17.0625 12.902344 C 17.523438 12.777344 17.988281 12.695312 18.460938 12.652344 L 18.460938 14.085938 C 18.460938 14.210938 18.507812 14.320312 18.597656 14.40625 C 18.6875 14.496094 18.796875 14.542969 18.925781 14.542969 C 19.050781 14.542969 19.160156 14.496094 19.25 14.40625 C 19.339844 14.320312 19.386719 14.210938 19.386719 14.085938 L 19.386719 12.628906 C 19.867188 12.644531 20.34375 12.703125 20.8125 12.804688 C 21.285156 12.910156 21.742188 13.054688 22.183594 13.238281 C 22.628906 13.425781 23.050781 13.652344 23.453125 13.914062 C 23.855469 14.179688 24.226562 14.476562 24.574219 14.808594 C 24.917969 15.140625 25.230469 15.5 25.507812 15.890625 C 25.785156 16.277344 26.027344 16.691406 26.226562 17.121094 C 26.429688 17.554688 26.585938 18.003906 26.703125 18.464844 C 26.820312 18.925781 26.894531 19.394531 26.921875 19.871094 L 25.777344 19.871094 C 25.648438 19.871094 25.539062 19.914062 25.449219 20.003906 C 25.359375 20.09375 25.3125 20.199219 25.3125 20.328125 C 25.3125 20.453125 25.359375 20.558594 25.449219 20.648438 C 25.539062 20.738281 25.648438 20.78125 25.777344 20.78125 L 26.921875 20.78125 C 26.894531 21.253906 26.824219 21.722656 26.707031 22.179688 C 26.59375 22.640625 26.4375 23.082031 26.238281 23.515625 C 26.039062 23.945312 25.804688 24.355469 25.527344 24.742188 C 25.253906 25.128906 24.945312 25.488281 24.605469 25.820312 C 24.265625 26.152344 23.894531 26.453125 23.5 26.714844 C 23.101562 26.980469 22.683594 27.207031 22.246094 27.394531 C 21.804688 27.585938 21.351562 27.734375 20.886719 27.839844 C 20.417969 27.945312 19.945312 28.007812 19.46875 28.03125 Z M 19.46875 28.03125 " fill-opacity="1" fill-rule="nonzero"/></g></svg>