<svg xmlns="http://www.w3.org/2000/svg" xmlns:xlink="http://www.w3.org/1999/xlink" width="40" zoomAndPan="magnify" viewBox="0 0 30 30.000001" height="40" preserveAspectRatio="xMidYMid meet" version="1.0"><defs><clipPath id="6fd757afec"><path d="M 3.382812 5 L 25 5 L 25 26.417969 L 3.382812 26.417969 Z M 3.382812 5 " clip-rule="nonzero"/></clipPath><clipPath id="620f3bc8b3"><path d="M 21 3.195312 L 26.609375 3.195312 L 26.609375 9 L 21 9 Z M 21 3.195312 " clip-rule="nonzero"/></clipPath><clipPath id="2600656335"><path d="M 3.382812 19 L 12 19 L 12 24 L 3.382812 24 Z M 3.382812 19 " clip-rule="nonzero"/></clipPath><clipPath id="b66c05e5af"><path d="M 7 21 L 10 21 L 10 26.417969 L 7 26.417969 Z M 7 21 " clip-rule="nonzero"/></clipPath></defs><g clip-path="url(#6fd757afec)"><path fill="#c1694f" d="M 23.792969 17.195312 C 23.792969 11.273438 22.804688 10.285156 21.160156 8.640625 C 19.515625 6.996094 18.527344 6.007812 12.605469 6.007812 C 5.25 6.007812 3.394531 4.691406 3.394531 5.351562 C 3.394531 6.007812 4.710938 7.324219 6.027344 7.324219 C 7.34375 7.324219 14.582031 6.007812 19.1875 10.613281 C 23.792969 15.21875 22.476562 22.457031 22.476562 23.773438 C 22.476562 25.089844 23.792969 26.40625 24.449219 26.40625 C 25.109375 26.40625 23.792969 24.550781 23.792969 17.195312 Z M 23.792969 17.195312 " fill-opacity="1" fill-rule="nonzero"/></g><path fill="#d99e82" d="M 7.015625 22.601562 C 6.832031 22.601562 6.6875 22.457031 6.6875 22.273438 L 6.6875 5.679688 C 6.6875 5.5 6.832031 5.351562 7.015625 5.351562 C 7.195312 5.351562 7.34375 5.5 7.34375 5.679688 L 7.34375 22.273438 C 7.34375 22.457031 7.195312 22.601562 7.015625 22.601562 Z M 7.199219 22.785156 C 7.199219 22.605469 7.347656 22.457031 7.527344 22.457031 L 24.121094 22.457031 C 24.304688 22.457031 24.449219 22.605469 24.449219 22.785156 C 24.449219 22.96875 24.304688 23.117188 24.121094 23.117188 L 7.527344 23.117188 C 7.347656 23.117188 7.199219 22.96875 7.199219 22.785156 Z M 7.199219 22.785156 " fill-opacity="1" fill-rule="nonzero"/><g clip-path="url(#620f3bc8b3)"><path fill="#99aab5" d="M 26.609375 3.195312 L 21.003906 5.03125 L 23.347656 6.4375 L 24.726562 8.753906 Z M 26.609375 3.195312 " fill-opacity="1" fill-rule="nonzero"/></g><path fill="#dd2e44" d="M 8.585938 20.359375 C 7.335938 20.597656 6.238281 20.359375 6.136719 19.824219 C 6.035156 19.289062 6.964844 18.660156 8.214844 18.421875 C 9.460938 18.179688 10.558594 18.417969 10.660156 18.953125 C 10.765625 19.488281 9.835938 20.117188 8.585938 20.359375 Z M 8.585938 20.359375 " fill-opacity="1" fill-rule="nonzero"/><path fill="#f4900c" d="M 7.878906 20.675781 C 6.628906 20.914062 5.535156 20.675781 5.429688 20.140625 C 5.328125 19.605469 6.257812 18.976562 7.507812 18.738281 C 8.757812 18.496094 9.851562 18.738281 9.953125 19.269531 C 10.058594 19.804688 9.128906 20.433594 7.878906 20.675781 Z M 7.878906 20.675781 " fill-opacity="1" fill-rule="nonzero"/><path fill="#a0041e" d="M 6.964844 21.589844 C 5.714844 21.828125 4.621094 21.589844 4.515625 21.054688 C 4.414062 20.519531 5.34375 19.890625 6.59375 19.652344 C 7.839844 19.410156 8.9375 19.652344 9.039062 20.183594 C 9.144531 20.722656 8.214844 21.351562 6.964844 21.589844 Z M 6.964844 21.589844 " fill-opacity="1" fill-rule="nonzero"/><g clip-path="url(#2600656335)"><path fill="#dd2e44" d="M 6.035156 22.519531 C 4.785156 22.757812 3.6875 22.519531 3.585938 21.984375 C 3.484375 21.449219 4.414062 20.820312 5.664062 20.582031 C 6.910156 20.34375 8.007812 20.582031 8.109375 21.117188 C 8.214844 21.652344 7.285156 22.28125 6.035156 22.519531 Z M 9.445312 21.21875 C 9.203125 22.464844 9.445312 23.5625 9.980469 23.664062 C 10.515625 23.765625 11.144531 22.835938 11.382812 21.589844 C 11.621094 20.339844 11.382812 19.242188 10.847656 19.140625 C 10.3125 19.035156 9.683594 19.96875 9.445312 21.21875 Z M 9.445312 21.21875 " fill-opacity="1" fill-rule="nonzero"/></g><path fill="#f4900c" d="M 9.128906 21.921875 C 8.886719 23.171875 9.128906 24.269531 9.660156 24.371094 C 10.195312 24.472656 10.824219 23.542969 11.066406 22.296875 C 11.304688 21.046875 11.066406 19.949219 10.53125 19.847656 C 9.996094 19.742188 9.367188 20.671875 9.128906 21.921875 Z M 9.128906 21.921875 " fill-opacity="1" fill-rule="nonzero"/><path fill="#a0041e" d="M 8.214844 22.835938 C 7.972656 24.085938 8.214844 25.179688 8.746094 25.285156 C 9.28125 25.386719 9.910156 24.457031 10.152344 23.210938 C 10.390625 21.960938 10.152344 20.863281 9.617188 20.761719 C 9.082031 20.65625 8.453125 21.585938 8.214844 22.835938 Z M 8.214844 22.835938 " fill-opacity="1" fill-rule="nonzero"/><g clip-path="url(#b66c05e5af)"><path fill="#dd2e44" d="M 7.28125 23.765625 C 7.042969 25.015625 7.28125 26.113281 7.816406 26.214844 C 8.351562 26.316406 8.980469 25.386719 9.21875 24.140625 C 9.460938 22.890625 9.21875 21.792969 8.6875 21.691406 C 8.152344 21.589844 7.523438 22.519531 7.28125 23.765625 Z M 7.28125 23.765625 " fill-opacity="1" fill-rule="nonzero"/></g><path fill="#ccd6dd" d="M 7.527344 23.183594 C 7.277344 23.4375 6.867188 23.4375 6.617188 23.183594 C 6.363281 22.933594 6.363281 22.527344 6.617188 22.273438 L 22.976562 5.914062 C 23.226562 5.664062 23.636719 5.664062 23.886719 5.914062 C 24.136719 6.167969 24.136719 6.574219 23.886719 6.824219 Z M 7.527344 23.183594 " fill-opacity="1" fill-rule="nonzero"/></svg>