<svg xmlns="http://www.w3.org/2000/svg" xmlns:xlink="http://www.w3.org/1999/xlink" width="240" zoomAndPan="magnify" viewBox="0 0 180 37.5" height="50" preserveAspectRatio="xMidYMid meet" version="1.0"><defs><g/><clipPath id="cccdcdc4e2"><path d="M 128.5625 16.578125 L 145.371094 16.578125 L 145.371094 33.386719 L 128.5625 33.386719 Z M 128.5625 16.578125 " clip-rule="nonzero"/></clipPath><clipPath id="f77598ddcc"><path d="M 136.886719 16.578125 C 132.289062 16.578125 128.5625 20.324219 128.5625 24.941406 C 128.5625 29.5625 132.289062 33.304688 136.886719 33.304688 C 141.484375 33.304688 145.214844 29.5625 145.214844 24.941406 C 145.214844 20.324219 141.484375 16.578125 136.886719 16.578125 " clip-rule="nonzero"/></clipPath><clipPath id="60044ec491"><path d="M 128.5625 20.28125 L 145.371094 20.28125 L 145.371094 37.007812 L 128.5625 37.007812 Z M 128.5625 20.28125 " clip-rule="nonzero"/></clipPath><clipPath id="5a1fceff50"><path d="M 136.886719 20.28125 C 132.289062 20.28125 128.5625 24.023438 128.5625 28.644531 C 128.5625 33.261719 132.289062 37.007812 136.886719 37.007812 C 141.484375 37.007812 145.214844 33.261719 145.214844 28.644531 C 145.214844 24.023438 141.484375 20.28125 136.886719 20.28125 " clip-rule="nonzero"/></clipPath><clipPath id="619122e776"><path d="M 18 2.8125 L 24 2.8125 L 24 12 L 18 12 Z M 18 2.8125 " clip-rule="nonzero"/></clipPath><clipPath id="dede7b9813"><path d="M 18 2.8125 L 25 2.8125 L 25 12 L 18 12 Z M 18 2.8125 " clip-rule="nonzero"/></clipPath></defs><g clip-path="url(#cccdcdc4e2)"><g clip-path="url(#f77598ddcc)"><path fill="#000000" d="M 128.5625 16.578125 L 145.171875 16.578125 L 145.171875 33.386719 L 128.5625 33.386719 Z M 128.5625 16.578125 " fill-opacity="1" fill-rule="nonzero"/></g></g><g clip-path="url(#60044ec491)"><g clip-path="url(#5a1fceff50)"><path fill="#ffffff" d="M 128.5625 20.28125 L 145.171875 20.28125 L 145.171875 37.089844 L 128.5625 37.089844 Z M 128.5625 20.28125 " fill-opacity="1" fill-rule="nonzero"/></g></g><g fill="#000000" fill-opacity="1"><g transform="translate(7.139957, 32.565789)"><g><path d="M 2.0625 0 L 2.0625 -21.3125 L 9.984375 -21.3125 C 11.429688 -21.3125 12.710938 -21.046875 13.828125 -20.515625 C 14.941406 -19.992188 15.8125 -19.234375 16.4375 -18.234375 C 17.070312 -17.234375 17.390625 -16.019531 17.390625 -14.59375 C 17.390625 -13.125 17.039062 -11.875 16.34375 -10.84375 C 15.65625 -9.8125 14.71875 -9.046875 13.53125 -8.546875 L 18.421875 0 L 14.015625 0 L 8.78125 -9.359375 L 11.296875 -7.875 L 5.953125 -7.875 L 5.953125 0 Z M 5.953125 -11.296875 L 10.046875 -11.296875 C 10.742188 -11.296875 11.347656 -11.429688 11.859375 -11.703125 C 12.378906 -11.984375 12.78125 -12.375 13.0625 -12.875 C 13.351562 -13.375 13.5 -13.945312 13.5 -14.59375 C 13.5 -15.257812 13.351562 -15.832031 13.0625 -16.3125 C 12.78125 -16.800781 12.378906 -17.179688 11.859375 -17.453125 C 11.347656 -17.734375 10.742188 -17.875 10.046875 -17.875 L 5.953125 -17.875 Z M 5.953125 -11.296875 "/></g></g></g><g fill="#000000" fill-opacity="1"><g transform="translate(26.05163, 32.565789)"><g><path d="M 9.359375 0.34375 C 7.828125 0.34375 6.4375 -0.0078125 5.1875 -0.71875 C 3.9375 -1.425781 2.941406 -2.390625 2.203125 -3.609375 C 1.472656 -4.828125 1.109375 -6.21875 1.109375 -7.78125 C 1.109375 -9.34375 1.472656 -10.734375 2.203125 -11.953125 C 2.941406 -13.179688 3.929688 -14.144531 5.171875 -14.84375 C 6.410156 -15.550781 7.804688 -15.90625 9.359375 -15.90625 C 10.878906 -15.90625 12.257812 -15.550781 13.5 -14.84375 C 14.738281 -14.144531 15.722656 -13.1875 16.453125 -11.96875 C 17.191406 -10.757812 17.5625 -9.363281 17.5625 -7.78125 C 17.5625 -6.21875 17.1875 -4.828125 16.4375 -3.609375 C 15.695312 -2.390625 14.707031 -1.425781 13.46875 -0.71875 C 12.226562 -0.0078125 10.859375 0.34375 9.359375 0.34375 Z M 9.359375 -3.09375 C 10.191406 -3.09375 10.925781 -3.289062 11.5625 -3.6875 C 12.207031 -4.09375 12.710938 -4.648438 13.078125 -5.359375 C 13.453125 -6.078125 13.640625 -6.882812 13.640625 -7.78125 C 13.640625 -8.695312 13.453125 -9.503906 13.078125 -10.203125 C 12.710938 -10.898438 12.207031 -11.453125 11.5625 -11.859375 C 10.925781 -12.265625 10.191406 -12.46875 9.359375 -12.46875 C 8.492188 -12.46875 7.738281 -12.265625 7.09375 -11.859375 C 6.445312 -11.453125 5.9375 -10.898438 5.5625 -10.203125 C 5.1875 -9.503906 5 -8.695312 5 -7.78125 C 5 -6.882812 5.1875 -6.078125 5.5625 -5.359375 C 5.9375 -4.648438 6.445312 -4.09375 7.09375 -3.6875 C 7.738281 -3.289062 8.492188 -3.09375 9.359375 -3.09375 Z M 9.359375 -3.09375 "/></g></g></g><g fill="#000000" fill-opacity="1"><g transform="translate(44.705811, 32.565789)"><g><path d="M 10.234375 0.34375 C 9.109375 0.34375 8.070312 0.117188 7.125 -0.328125 C 6.1875 -0.773438 5.441406 -1.421875 4.890625 -2.265625 L 5.265625 -3 L 5.265625 0 L 1.75 0 L 1.75 -21.65625 L 5.5 -21.65625 L 5.5 -12.46875 L 4.921875 -13.25 C 5.453125 -14.082031 6.175781 -14.734375 7.09375 -15.203125 C 8.007812 -15.671875 9.066406 -15.90625 10.265625 -15.90625 C 11.734375 -15.90625 13.054688 -15.539062 14.234375 -14.8125 C 15.421875 -14.09375 16.363281 -13.125 17.0625 -11.90625 C 17.757812 -10.6875 18.109375 -9.3125 18.109375 -7.78125 C 18.109375 -6.269531 17.765625 -4.894531 17.078125 -3.65625 C 16.390625 -2.414062 15.453125 -1.4375 14.265625 -0.71875 C 13.085938 -0.0078125 11.742188 0.34375 10.234375 0.34375 Z M 9.8125 -3.09375 C 10.664062 -3.09375 11.425781 -3.289062 12.09375 -3.6875 C 12.769531 -4.09375 13.289062 -4.644531 13.65625 -5.34375 C 14.03125 -6.050781 14.21875 -6.863281 14.21875 -7.78125 C 14.21875 -8.695312 14.03125 -9.503906 13.65625 -10.203125 C 13.289062 -10.898438 12.769531 -11.453125 12.09375 -11.859375 C 11.425781 -12.265625 10.664062 -12.46875 9.8125 -12.46875 C 8.988281 -12.46875 8.25 -12.265625 7.59375 -11.859375 C 6.9375 -11.460938 6.421875 -10.90625 6.046875 -10.1875 C 5.679688 -9.476562 5.5 -8.675781 5.5 -7.78125 C 5.5 -6.863281 5.679688 -6.050781 6.046875 -5.34375 C 6.421875 -4.644531 6.9375 -4.09375 7.59375 -3.6875 C 8.25 -3.289062 8.988281 -3.09375 9.8125 -3.09375 Z M 9.8125 -3.09375 "/></g></g></g><g fill="#000000" fill-opacity="1"><g transform="translate(63.932201, 32.565789)"><g><path d="M 1.75 0 L 1.75 -15.5625 L 5.5 -15.5625 L 5.5 0 Z M 1.75 -17.3125 L 1.75 -21.3125 L 5.5 -21.3125 L 5.5 -17.3125 Z M 1.75 -17.3125 "/></g></g></g><g fill="#000000" fill-opacity="1"><g transform="translate(71.142103, 32.565789)"><g><path d="M 1.75 0 L 1.75 -15.5625 L 5.265625 -15.5625 L 5.265625 -12.5 L 4.984375 -13.046875 C 5.335938 -13.984375 5.929688 -14.691406 6.765625 -15.171875 C 7.597656 -15.660156 8.566406 -15.90625 9.671875 -15.90625 C 10.816406 -15.90625 11.832031 -15.65625 12.71875 -15.15625 C 13.601562 -14.664062 14.289062 -13.976562 14.78125 -13.09375 C 15.28125 -12.207031 15.53125 -11.179688 15.53125 -10.015625 L 15.53125 0 L 11.78125 0 L 11.78125 -9.125 C 11.78125 -9.8125 11.644531 -10.398438 11.375 -10.890625 C 11.113281 -11.390625 10.75 -11.773438 10.28125 -12.046875 C 9.8125 -12.328125 9.265625 -12.46875 8.640625 -12.46875 C 8.023438 -12.46875 7.476562 -12.328125 7 -12.046875 C 6.53125 -11.773438 6.160156 -11.390625 5.890625 -10.890625 C 5.628906 -10.398438 5.5 -9.8125 5.5 -9.125 L 5.5 0 Z M 1.75 0 "/></g></g></g><g fill="#000000" fill-opacity="1"><g transform="translate(88.108243, 32.565789)"><g/></g></g><g fill="#000000" fill-opacity="1"><g transform="translate(93.20095, 32.565789)"><g><path d="M 2.0625 0 L 2.0625 -21.3125 L 11.046875 -21.3125 C 12.453125 -21.3125 13.65625 -21.066406 14.65625 -20.578125 C 15.664062 -20.097656 16.441406 -19.410156 16.984375 -18.515625 C 17.523438 -17.628906 17.796875 -16.5625 17.796875 -15.3125 C 17.796875 -14.332031 17.53125 -13.414062 17 -12.5625 C 16.476562 -11.71875 15.644531 -11.019531 14.5 -10.46875 L 14.5 -12.265625 C 15.550781 -11.867188 16.378906 -11.375 16.984375 -10.78125 C 17.597656 -10.195312 18.03125 -9.539062 18.28125 -8.8125 C 18.53125 -8.082031 18.65625 -7.316406 18.65625 -6.515625 C 18.65625 -4.484375 17.984375 -2.890625 16.640625 -1.734375 C 15.296875 -0.578125 13.429688 0 11.046875 0 Z M 5.953125 -3.4375 L 11.4375 -3.4375 C 12.445312 -3.4375 13.253906 -3.71875 13.859375 -4.28125 C 14.460938 -4.84375 14.765625 -5.585938 14.765625 -6.515625 C 14.765625 -7.453125 14.460938 -8.207031 13.859375 -8.78125 C 13.253906 -9.351562 12.445312 -9.640625 11.4375 -9.640625 L 5.953125 -9.640625 Z M 5.953125 -13.046875 L 11.25 -13.046875 C 12.039062 -13.046875 12.675781 -13.28125 13.15625 -13.75 C 13.632812 -14.21875 13.875 -14.820312 13.875 -15.5625 C 13.875 -16.300781 13.632812 -16.890625 13.15625 -17.328125 C 12.675781 -17.773438 12.039062 -18 11.25 -18 L 5.953125 -18 Z M 5.953125 -13.046875 "/></g></g></g><g fill="#000000" fill-opacity="1"><g transform="translate(112.970941, 32.565789)"><g><path d="M 9.359375 0.34375 C 7.828125 0.34375 6.4375 -0.0078125 5.1875 -0.71875 C 3.9375 -1.425781 2.941406 -2.390625 2.203125 -3.609375 C 1.472656 -4.828125 1.109375 -6.21875 1.109375 -7.78125 C 1.109375 -9.34375 1.472656 -10.734375 2.203125 -11.953125 C 2.941406 -13.179688 3.929688 -14.144531 5.171875 -14.84375 C 6.410156 -15.550781 7.804688 -15.90625 9.359375 -15.90625 C 10.878906 -15.90625 12.257812 -15.550781 13.5 -14.84375 C 14.738281 -14.144531 15.722656 -13.1875 16.453125 -11.96875 C 17.191406 -10.757812 17.5625 -9.363281 17.5625 -7.78125 C 17.5625 -6.21875 17.1875 -4.828125 16.4375 -3.609375 C 15.695312 -2.390625 14.707031 -1.425781 13.46875 -0.71875 C 12.226562 -0.0078125 10.859375 0.34375 9.359375 0.34375 Z M 9.359375 -3.09375 C 10.191406 -3.09375 10.925781 -3.289062 11.5625 -3.6875 C 12.207031 -4.09375 12.710938 -4.648438 13.078125 -5.359375 C 13.453125 -6.078125 13.640625 -6.882812 13.640625 -7.78125 C 13.640625 -8.695312 13.453125 -9.503906 13.078125 -10.203125 C 12.710938 -10.898438 12.207031 -11.453125 11.5625 -11.859375 C 10.925781 -12.265625 10.191406 -12.46875 9.359375 -12.46875 C 8.492188 -12.46875 7.738281 -12.265625 7.09375 -11.859375 C 6.445312 -11.453125 5.9375 -10.898438 5.5625 -10.203125 C 5.1875 -9.503906 5 -8.695312 5 -7.78125 C 5 -6.882812 5.1875 -6.078125 5.5625 -5.359375 C 5.9375 -4.648438 6.445312 -4.09375 7.09375 -3.6875 C 7.738281 -3.289062 8.492188 -3.09375 9.359375 -3.09375 Z M 9.359375 -3.09375 "/></g></g></g><g fill="#000000" fill-opacity="1"><g transform="translate(131.620835, 32.565789)"><g/></g></g><g fill="#000000" fill-opacity="1"><g transform="translate(136.713542, 32.565789)"><g/></g></g><g fill="#000000" fill-opacity="1"><g transform="translate(141.797644, 32.565789)"><g><path d="M 9.359375 0.34375 C 7.828125 0.34375 6.4375 -0.0078125 5.1875 -0.71875 C 3.9375 -1.425781 2.941406 -2.390625 2.203125 -3.609375 C 1.472656 -4.828125 1.109375 -6.21875 1.109375 -7.78125 C 1.109375 -9.34375 1.472656 -10.734375 2.203125 -11.953125 C 2.941406 -13.179688 3.929688 -14.144531 5.171875 -14.84375 C 6.410156 -15.550781 7.804688 -15.90625 9.359375 -15.90625 C 10.878906 -15.90625 12.257812 -15.550781 13.5 -14.84375 C 14.738281 -14.144531 15.722656 -13.1875 16.453125 -11.96875 C 17.191406 -10.757812 17.5625 -9.363281 17.5625 -7.78125 C 17.5625 -6.21875 17.1875 -4.828125 16.4375 -3.609375 C 15.695312 -2.390625 14.707031 -1.425781 13.46875 -0.71875 C 12.226562 -0.0078125 10.859375 0.34375 9.359375 0.34375 Z M 9.359375 -3.09375 C 10.191406 -3.09375 10.925781 -3.289062 11.5625 -3.6875 C 12.207031 -4.09375 12.710938 -4.648438 13.078125 -5.359375 C 13.453125 -6.078125 13.640625 -6.882812 13.640625 -7.78125 C 13.640625 -8.695312 13.453125 -9.503906 13.078125 -10.203125 C 12.710938 -10.898438 12.207031 -11.453125 11.5625 -11.859375 C 10.925781 -12.265625 10.191406 -12.46875 9.359375 -12.46875 C 8.492188 -12.46875 7.738281 -12.265625 7.09375 -11.859375 C 6.445312 -11.453125 5.9375 -10.898438 5.5625 -10.203125 C 5.1875 -9.503906 5 -8.695312 5 -7.78125 C 5 -6.882812 5.1875 -6.078125 5.5625 -5.359375 C 5.9375 -4.648438 6.445312 -4.09375 7.09375 -3.6875 C 7.738281 -3.289062 8.492188 -3.09375 9.359375 -3.09375 Z M 9.359375 -3.09375 "/></g></g></g><g fill="#000000" fill-opacity="1"><g transform="translate(160.451825, 32.565789)"><g><path d="M 1.75 0 L 1.75 -21.65625 L 5.5 -21.65625 L 5.5 -7.46875 L 4.0625 -7.890625 L 11.390625 -15.5625 L 16.046875 -15.5625 L 10.296875 -9.296875 L 16.171875 0 L 11.875 0 L 6.78125 -8.0625 L 9.015625 -8.53125 L 4.3125 -3.484375 L 5.5 -5.78125 L 5.5 0 Z M 1.75 0 "/></g></g></g><g fill="#000000" fill-opacity="1"><g transform="translate(132.119248, 32.382363)"><g><path d="M 4.78125 0.171875 C 4 0.171875 3.285156 -0.00390625 2.640625 -0.359375 C 2.003906 -0.722656 1.5 -1.21875 1.125 -1.84375 C 0.75 -2.46875 0.5625 -3.175781 0.5625 -3.96875 C 0.5625 -4.769531 0.75 -5.484375 1.125 -6.109375 C 1.5 -6.734375 2.003906 -7.222656 2.640625 -7.578125 C 3.273438 -7.941406 3.988281 -8.125 4.78125 -8.125 C 5.5625 -8.125 6.265625 -7.941406 6.890625 -7.578125 C 7.523438 -7.222656 8.03125 -6.734375 8.40625 -6.109375 C 8.78125 -5.492188 8.96875 -4.78125 8.96875 -3.96875 C 8.96875 -3.175781 8.773438 -2.46875 8.390625 -1.84375 C 8.015625 -1.21875 7.507812 -0.722656 6.875 -0.359375 C 6.25 -0.00390625 5.550781 0.171875 4.78125 0.171875 Z M 4.78125 -1.578125 C 5.207031 -1.578125 5.582031 -1.675781 5.90625 -1.875 C 6.238281 -2.082031 6.5 -2.367188 6.6875 -2.734375 C 6.875 -3.097656 6.96875 -3.507812 6.96875 -3.96875 C 6.96875 -4.4375 6.875 -4.847656 6.6875 -5.203125 C 6.5 -5.554688 6.238281 -5.835938 5.90625 -6.046875 C 5.582031 -6.265625 5.207031 -6.375 4.78125 -6.375 C 4.34375 -6.375 3.957031 -6.265625 3.625 -6.046875 C 3.289062 -5.835938 3.03125 -5.554688 2.84375 -5.203125 C 2.65625 -4.847656 2.5625 -4.4375 2.5625 -3.96875 C 2.5625 -3.507812 2.65625 -3.097656 2.84375 -2.734375 C 3.03125 -2.367188 3.289062 -2.082031 3.625 -1.875 C 3.957031 -1.675781 4.34375 -1.578125 4.78125 -1.578125 Z M 4.78125 -1.578125 "/></g></g></g><path fill="#166356" d="M 8.109375 13.238281 C 8.109375 13.238281 3.199219 16.472656 4.648438 16.820312 C 7.972656 17.617188 22.125 11.863281 22.125 11.863281 L 19.800781 5.074219 C 19.191406 3.605469 8.328125 4.628906 8.453125 6.828125 Z M 8.109375 13.238281 " fill-opacity="1" fill-rule="nonzero"/><g clip-path="url(#619122e776)"><path fill="#b03200" d="M 18.972656 11.25 C 18.710938 10.804688 18.671875 10.039062 18.875 9.3125 C 19.140625 8.363281 21.347656 5.160156 21.671875 4.746094 C 22.414062 3.792969 22.9375 3.972656 23.652344 2.8125 C 23.636719 3.617188 23.613281 4.125 23.4375 4.53125 C 22.414062 6.890625 20.566406 11.226562 19.980469 11.167969 Z M 18.972656 11.25 " fill-opacity="1" fill-rule="nonzero"/></g><path fill="#550022" d="M 7.964844 12.59375 C 7.722656 12.585938 7.746094 13.792969 7.964844 13.75 C 10.960938 13.601562 15.390625 12.84375 19.347656 12.277344 L 21 10.953125 C 17.113281 11.507812 10.871094 12.628906 7.964844 12.59375 Z M 7.964844 12.59375 " fill-opacity="1" fill-rule="nonzero"/><g clip-path="url(#dede7b9813)"><path stroke-linecap="butt" transform="matrix(0.38934, 0, 0, 0.389543, 4.379687, 2.812501)" fill="none" stroke-linejoin="miter" d="M 49.500822 -0.0000022325 C 49.500822 -0.0000022325 47.05277 6.337553 45.387291 9.28572 C 44.21343 11.351442 42.437589 13.036109 41.283794 15.111859 C 40.180164 17.117415 38.645115 21.439387 38.645115 21.439387 " stroke="#000000" stroke-width="0.265" stroke-opacity="1" stroke-miterlimit="4"/></g><path fill="#2b0000" d="M 20.105469 11.25 C 20.105469 11.441406 20.039062 11.605469 19.902344 11.742188 C 19.769531 11.875 19.605469 11.945312 19.414062 11.945312 C 19.222656 11.945312 19.058594 11.875 18.925781 11.742188 C 18.789062 11.605469 18.722656 11.441406 18.71875 11.253906 C 18.71875 11.0625 18.789062 10.898438 18.921875 10.761719 C 19.058594 10.625 19.21875 10.558594 19.410156 10.558594 C 19.601562 10.558594 19.765625 10.625 19.902344 10.757812 C 20.035156 10.894531 20.105469 11.058594 20.105469 11.25 " fill-opacity="1" fill-rule="nonzero"/><path fill="#374837" d="M 21.414062 9.8125 C 21.882812 9.710938 24.433594 9.457031 24.855469 9.617188 L 22.109375 11.863281 Z M 21.414062 9.8125 " fill-opacity="1" fill-rule="nonzero"/><path fill="#374837" d="M 9.386719 6.328125 C 12.265625 5.082031 15.394531 4.757812 18.648438 4.878906 C 15.355469 6.511719 12.867188 5.851562 9.386719 6.328125 Z M 9.386719 6.328125 " fill-opacity="1" fill-rule="nonzero"/><path fill="#374837" d="M 10.640625 15.898438 C 10.640625 15.898438 13.171875 13.898438 14.605469 13.1875 C 15.753906 12.613281 17.039062 12.390625 18.246094 11.960938 C 20.375 11.203125 22.335938 9.589844 24.59375 9.578125 C 24.722656 9.578125 24.925781 9.585938 24.957031 9.710938 C 25.179688 10.597656 23.804688 11.765625 23.371094 11.929688 C 19.074219 13.5625 10.640625 15.898438 10.640625 15.898438 Z M 10.640625 15.898438 " fill-opacity="1" fill-rule="nonzero"/><path fill="#374837" d="M 9.566406 7.316406 C 10.695312 6.78125 13.46875 7.128906 15.601562 7.152344 C 15.601562 7.152344 13.550781 8.289062 11.707031 8.609375 C 11.238281 8.691406 9.269531 9.355469 9.152344 8.894531 C 9.039062 8.441406 9.171875 7.558594 9.566406 7.316406 Z M 9.566406 7.316406 " fill-opacity="1" fill-rule="nonzero"/></svg>